<?xml version="1.0" encoding="UTF-8" standalone="no"?>
<!-- Created with Inkscape (http://www.inkscape.org/) -->

<svg
   version="1.1"
   id="svg2"
   width="600"
   height="190"
   viewBox="0 0 600 190"
   sodipodi:docname="white_logo_horizontal.svg"
   inkscape:version="1.1.2 (0a00cf5339, 2022-02-04)"
   inkscape:export-filename="/mnt/3TB/PORTOFLIO/radiologiasahuayo/public/logos/white_logo_horizontal.webp"
   inkscape:export-xdpi="220.698"
   inkscape:export-ydpi="220.698"
   xmlns:inkscape="http://www.inkscape.org/namespaces/inkscape"
   xmlns:sodipodi="http://sodipodi.sourceforge.net/DTD/sodipodi-0.dtd"
   xmlns="http://www.w3.org/2000/svg"
   xmlns:svg="http://www.w3.org/2000/svg">
  <defs
     id="defs6" />
  <sodipodi:namedview
     id="namedview4"
     pagecolor="#ffffff"
     bordercolor="#666666"
     borderopacity="1.0"
     inkscape:pageshadow="2"
     inkscape:pageopacity="0.0"
     inkscape:pagecheckerboard="0"
     showgrid="false"
     inkscape:zoom="0.98523545"
     inkscape:cx="317.18307"
     inkscape:cy="119.76833"
     inkscape:window-width="1920"
     inkscape:window-height="991"
     inkscape:window-x="0"
     inkscape:window-y="0"
     inkscape:window-maximized="1"
     inkscape:current-layer="g8" />
  <g
     inkscape:groupmode="layer"
     inkscape:label="Image"
     id="g8" />
  <g
     inkscape:groupmode="layer"
     id="layer1"
     inkscape:label="Image 1">
    <g
       id="g1035"
       transform="matrix(0.44135303,0,0,0.44135303,-4.4343077,7.5143914)">
      <g
         id="g10"
         transform="matrix(0.13333333,0,0,-0.13333333,36.599815,359.11892)">
        <path
           d="m 829.016,1191.9 c 0.687,-0.99 1.3,-2.07 1.922,-3.15 0.042,0.55 0.171,1.09 0.199,1.64 l 0.152,3.52 c -2.363,0.96 -4.574,1.98 -6.555,3.15 1.532,-1.63 2.993,-3.33 4.282,-5.16 z m 20.554,104.57 c 0.215,3.97 1.145,7.18 2.211,10.01 -0.066,0.17 -0.148,0.36 -0.148,0.36 l -2.461,3.86 c -9.383,-9.71 -18.746,-20.86 -26.176,-30.84 -9.168,-12.3 -18.101,-24.08 -24.473,-30.74 -0.046,-0.84 -0.222,-1.72 -0.488,-2.62 -1.082,-4.29 -0.039,-10.44 1.391,-14.61 4.762,-14.18 14.012,-29.17 28.801,-34.17 1.027,-0.35 2.07,-0.7 3.117,-1.03 0.011,2.06 0.066,4.29 0.332,6.48 0.281,1.99 0.597,4.04 0.98,6.14 0.024,0.28 0.024,0.57 0.059,0.85 0.973,6.66 2.476,14.23 5.437,21.44 0.164,1.13 0.418,2.23 0.461,3.42 0.032,0.89 0.075,1.87 0.075,2.79 0,2.3 0.062,4.4 0.375,6.43 0.863,5.56 2.164,12.07 5.363,18.09 0.656,1.19 1.441,2.25 2.207,3.34 -1.844,9.98 -0.867,17.72 0.926,23.92 0.566,2.48 1.242,4.81 2.011,6.88 z m 54.207,80.68 v 6.71 h -0.117 v 235.48 c 1.805,-0.38 3.278,-0.2 4.442,1.43 2.086,2.83 1.414,6.05 0.898,8.77 0.625,0.29 1.188,0.5 1.801,0.82 5.012,3.08 12.437,8.98 13.09,13.18 1.086,7.32 -0.375,13.12 4.859,21.02 5.176,7.95 2.926,7.33 -8.547,16.8 -11.582,9.48 -16.414,4.86 -21.598,-3.95 -1.828,-3.18 -3.667,-4.75 -5.312,-5.12 v 0.06 c -0.305,-0.08 -0.566,-0.08 -0.867,-0.08 -0.238,0 -0.524,0 -0.801,0.08 v -0.06 c -1.687,0.37 -3.484,1.94 -5.348,5.12 -5.172,8.81 -10.011,13.43 -21.543,3.95 -11.531,-9.47 -13.82,-8.85 -8.546,-16.8 5.175,-7.9 3.714,-13.7 4.781,-21.02 0.672,-4.2 8.156,-10.1 13.156,-13.18 0.563,-0.32 1.164,-0.53 1.75,-0.82 -0.449,-2.7 -1.187,-5.94 0.902,-8.77 1.121,-1.6 2.7,-1.81 4.383,-1.43 v -242.42 c -1.183,-5.88 -5.57,-9.03 -24.695,-27.64 0.281,-8.42 0.398,-16.64 0.512,-24.4 l 13.699,11.86 0.949,-1.69 2.645,2.42 2.683,-4.67 c 2.317,1.02 4.649,1.9 7.024,2.46 1.062,4.3 6.351,6.55 10.125,7.05 0.562,0.04 1.136,0.1 1.738,0.1 0.191,0 0.66,-0.05 0.996,-0.07 2.281,1.32 4.977,2.25 7.695,2.65 1.543,0.2 2.61,0.72 7.039,-0.45 l 1.86,-0.5 1.738,0.82 c 1.922,0.9 4.18,1.44 6.426,1.57 2.547,-0.01 4.398,-0.32 6.133,-0.86 0.039,1.53 0.054,3.02 0.125,4.57 -18.622,18.12 -22.95,21.19 -24.075,27.01 z m -134.289,138.32 c 0,0 -35.113,-21.01 -68.199,-82.66 -33.031,-61.66 -32.812,-199.71 -36.523,-235.7 0,-0.16 -0.047,-0.21 -0.047,-0.35 0,0 -6.754,-11.3 -9.793,-58.61 -2.988,-47.37 2.254,-79.69 10.512,-91 3.078,-4.12 9.078,-9.84 18,-15.14 13.675,23.69 39.597,39.66 79.152,49.05 28.18,6.05 45.476,8.02 58.086,6.46 4.515,0.01 8.508,-0.33 12.137,-0.97 6.191,4.35 17.871,7.55 39.125,7.55 0.73,0 1.585,-0.02 2.363,-0.02 0.094,0.64 0.172,1.3 0.265,1.95 -11.312,7 -22.546,15.57 -30.711,26.85 -0.492,0.64 -1.066,1.45 -1.648,2.27 l -3.004,4.3 -0.57,0.84 c -1.223,1.64 -2.418,3.41 -3.203,5.48 -1.242,0.78 -2.403,1.79 -3.45,3 -3.628,4.55 -4.656,9.92 -3.054,15.34 0.121,0.36 0.254,0.72 0.394,1.06 l 0.004,0.09 -0.199,1.99 v 4.4 c -0.23,0.83 -0.41,1.7 -0.477,2.53 -0.296,2.5 -0.011,4.98 0.825,7.27 -0.391,2.47 -0.153,4.8 0.132,6.58 0.02,0.4 0.141,1.26 0.282,2.1 0.246,1.42 0.328,2.87 0.523,4.29 -0.426,0.84 -0.902,1.65 -1.367,2.47 l -2.395,0.49 2.247,-0.22 c -1.817,3.16 -3.836,6.2 -6.227,8.86 -3.043,2.13 -5.617,4.92 -8.668,7.07 -1.348,1.01 -2.762,2.15 -4.266,2.93 -0.855,0.43 -1.496,0.5 -1.921,0.27 0.113,-8.18 -1.411,-16.27 -4.383,-23.92 0.336,-2.31 0.336,-4.65 1.25,-6.86 0.816,-1.97 1.898,-3.8 2.996,-5.63 3.445,-3.92 6.937,-7.82 9.027,-13.04 1.91,-4.94 2.977,-9.73 3.16,-14.65 -0.41,-2.32 -0.972,-4.59 -1.699,-6.86 0.113,8.69 -2.086,17.41 -6.863,24.83 -3.321,5.17 -8.649,9.53 -11.086,15.17 -5.789,-10.62 -15.465,-20.46 -18.113,-32.11 -2.247,-10.02 -1.461,-20.25 3.664,-28.86 0.789,-1.9 1.797,-3.87 2.812,-5.8 -7.312,7.65 -10.125,16.5 -9.777,25.5 -3.074,-4.45 -7.613,-7.26 -12.071,-10.47 -7.851,-5.68 -12.417,-12.07 -16.203,-20.2 -0.113,1.06 -0.199,1.96 -0.199,2.27 -0.062,0.78 0,1.56 0.125,2.33 1.535,3.67 3.641,7.04 6,10.04 6.188,7.87 16.235,11.31 22.563,19.06 0.011,0.05 0.011,0.06 0.011,0.06 0.883,7.72 3.926,15.31 8.313,22.38 -14.465,1.68 -26.949,-4.38 -38.199,-12.63 -0.278,-1.25 -0.977,-2.26 -1.289,-3.56 -0.336,-1.39 -0.563,-2.88 -0.789,-4.32 -0.059,-0.46 -0.172,-0.91 -0.223,-1.36 -0.789,-1.19 -1.527,-2.33 -2.238,-3.5 0.437,3.21 0.148,7.11 1.164,10.18 -4.727,-3.73 -9.278,-7.76 -13.578,-11.62 0.183,0.62 0.414,1.29 0.64,1.89 11.813,12.13 30.563,30.67 48.781,28.18 0.454,0.06 0.942,0.1 1.454,0.06 3.492,0 5.863,0.69 8.097,2.54 8.559,13.23 15.731,28.83 13.11,44.89 -1.129,6.98 -3.981,13.58 -6.082,20.28 -0.786,2.63 -1.286,7.2 -3.485,9.05 -3.453,2.85 -6.488,-2.47 -7.988,-4.96 -4.102,-7.14 -10.852,-12.31 -18.563,-15.17 -6.863,-2.5 -12.761,-5.38 -9.453,-14.05 3.828,-10 18.969,-14.31 12.895,-27.04 -0.406,4.72 -0.442,7.81 -3.559,11.79 -2.637,3.3 -6.008,6.22 -9.109,9.16 -0.496,-4.61 -0.863,-18.22 -7.363,-19.2 3.203,4.26 4.406,7.77 4.613,13.22 0.312,6.95 -1.863,13.47 -1.906,20.3 -4.504,-1.59 -8.957,-3.24 -13.118,-5.55 -7.312,-4.09 -13.918,-10.53 -15.914,-18.93 -2.086,-8.75 1.805,-16.81 5.785,-24.35 -6.296,4.14 -8.71,11.77 -9.445,18.88 -4.777,-5.6 -10.289,-11.25 -14.359,-17.31 -4.254,-6.52 -4.481,-13.94 -2.742,-21.26 -9.414,10.84 0.789,23.8 8.023,32 -7.734,-2.65 -15.715,-4.5 -21.461,-10.67 2.977,5.55 6.836,7.97 12.649,10.11 4.566,1.73 10.527,2.58 13.675,6.57 3.313,4.16 4.84,8.75 7.2,13.39 4.613,9.27 13.839,14.15 22.925,18.16 -11.175,-2.04 -22.09,-1.49 -33.273,-2.61 -6.141,-0.6 -7.606,-2.98 -8.215,-8.73 -0.586,-5.1 -2.812,-8.33 -6.359,-11.89 3.523,5.17 3.882,10.91 4.16,16.87 -3.266,-1.51 -5.926,-4.35 -8.711,-6.63 4.437,6.85 9.113,11.6 17.41,13.06 6.113,1.12 12.371,1.59 18.523,2.03 11.426,0.74 23.465,1.35 34.352,5.26 8.352,2.92 23.246,11.08 21.852,22.05 -0.336,0.13 -0.625,0.25 -0.899,0.5 -14.238,6.16 -30.59,-8.24 -45.437,-6.55 -2.102,0.22 -4.176,0.7 -6.09,1.39 h -0.285 c -2.297,-0.42 -4.5,-0.91 -6.688,-1.56 -4.183,-2.33 -8.238,-4.97 -13.527,-4.35 -3.805,0.45 -6.785,1.86 -8.813,4.42 -0.222,0.96 -0.375,2 -0.375,3.06 3.637,-4.33 9.887,-5.58 15.45,-4.35 2.289,0.94 4.613,2.36 6.48,3.04 1.059,0.4 2.105,0.79 3.195,1.07 0.414,0.17 0.852,0.41 1.356,0.55 -0.953,0.76 -1.805,1.63 -2.485,2.68 -2.808,4.27 -4.757,13.8 -9.785,17.56 0.449,-0.07 0.828,-0.13 1.129,-0.24 5.012,-1.45 7.723,-9.64 10.762,-13.52 0.66,-0.85 1.387,-1.6 2.098,-2.2 1.875,-1.92 4.082,-3.35 6.976,-3.8 0.477,-0.05 0.926,-0.11 1.375,-0.15 0.199,0 0.34,0 0.5,-0.02 5.91,-0.08 11.024,0.94 16.613,2.82 2.461,0.78 7.524,2.55 12.969,3.7 -6.683,5 -8.355,9.83 -12.105,17.93 -0.09,0.14 -0.153,0.24 -0.203,0.42 -3.598,-1.7 -8.047,-1.41 -12.098,-0.05 -1.195,0.8 -2.301,1.9 -3.231,3.07 4.469,-1.79 9.305,-1.64 14.321,-1.13 -6.305,11.76 -16.379,18.29 -29.93,18.24 0.648,0.34 1.289,0.67 1.996,1.02 0.488,0.23 1.098,0.33 1.606,0.43 4.699,0 9.336,-1.02 13.664,-2.89 -0.5,1.56 -0.598,3.26 -1.239,4.68 -0.5,1.16 -1.011,2.26 -1.738,3.28 1.32,-1.25 2.699,-2.43 4.102,-3.55 0.558,-1.71 0.898,-3.5 0.898,-5.39 3.82,-2.11 7.313,-5.06 9.899,-8.85 1.011,-1.5 1.863,-3.03 2.664,-4.53 3.363,-5.48 6.039,-11.53 10.793,-16.11 4.16,-3.81 8.668,-4.93 13.507,-5.29 0.149,2.25 1.114,5.09 3.586,8.7 4.391,6.39 12.051,20.8 22.95,37.39 -1.036,0.45 -2.25,0.83 -3.739,1.03 -2.32,0.33 -4.605,0.42 -6.859,0.42 0.863,0.78 1.711,1.48 2.613,2.18 -4.504,0.57 -8.203,1.55 -11.199,2.91 -2.285,0.14 -4.504,0.44 -6.352,1.21 -2.539,0.45 -5.125,2.53 -6.414,4.48 -0.562,0.85 -0.961,1.68 -1.347,2.52 -5.578,-2.57 -12.039,-2.59 -17.547,-0.48 -1.805,0.16 -3.606,0.46 -5.406,0.46 -2.25,-1.14 -5.536,-1.18 -8.047,-1.1 -1.953,-0.13 -3.871,-0.08 -5.961,0.25 -0.903,0.16 -1.852,0.46 -2.754,0.78 -1.797,1.55 -3.266,3.36 -4.223,5.37 5.141,-5.52 13.836,-3.25 20.36,-2.67 h 0.23 c -1.516,1.11 -2.867,2.5 -4.129,4.33 -1.664,2.31 -2.226,5.03 -3.043,7.66 2.172,-3.92 4.617,-7.72 8.18,-10.64 2.703,-2.05 6.043,-2.3 9.398,-2.03 3.989,-0.32 8.102,0.4 12.039,1.71 -0.562,3.9 0.239,7.94 1.008,12 0.582,3.07 0.906,6.37 0.793,9.72 -4.949,-0.18 -9.812,-1.63 -14.465,0.94 -2.972,1.7 -5.176,3.97 -7.136,6.56 -0.137,0.56 -0.211,1.08 -0.286,1.65 1.2,-2.25 3.633,-3.93 6.301,-4.93 1.199,-0.78 2.438,-1.42 3.774,-1.85 3.875,-1.23 7.925,0.14 11.699,-0.25 -0.738,10.9 -5.574,21.77 -16.074,25.5 -0.231,0.2 -0.461,0.37 -0.711,0.6 0.785,0.09 1.687,0.1 2.613,0.08 4.66,-1.71 8.434,-4.7 11.184,-8.66 0.738,3.98 1.683,7.98 0.789,11.93 1.636,-3.25 1.636,-7.37 1.125,-10.9 v -0.1 c -0.164,-0.65 -0.375,-1.25 -0.614,-1.8 -0.113,-0.2 -0.25,-0.33 -0.433,-0.45 1.898,-3.07 3.246,-6.52 4.047,-10.23 1.168,-5.37 1.617,-10.77 0.777,-16.22 1.914,1.88 4.211,3.55 4.949,4.03 1.91,1.15 3.985,2.41 6.199,3.74 1.223,0.99 2.473,1.97 3.786,2.93 1.152,0.9 2.164,1.81 3.175,2.71 -8.097,8.04 -5.8,21.77 0.727,30.34 0.738,0.58 1.523,1.15 2.324,1.68 -6.711,-8.18 -8.676,-21.93 -1.461,-30.36 2.235,2.43 3.824,4.98 4.836,7.88 1.899,3.35 2.774,7.1 2.774,10.93 0.265,-1.11 0.488,-2.2 0.636,-3.36 0.602,-1.64 0.739,-3.32 0.602,-4.97 0.527,-0.05 1.043,-0.17 1.601,0.08 1.286,0.47 2.411,1.22 3.536,2.02 0.906,0.57 2.308,1.6 3.55,2.71 -0.675,-1.57 -1.687,-3.01 -2.925,-4.33 -0.114,-0.09 -0.223,-0.2 -0.336,-0.28 -0.512,-0.32 -3.934,-2.28 -5.801,-2.37 -0.946,-3.43 -3.149,-6.59 -5.785,-9.23 -0.676,-0.74 -2.364,-1.94 -4.563,-3.51 -8.437,-6.84 -18.164,-13.21 -15.75,-24.07 2.36,5.08 9.297,-0.17 24.582,0.52 8.266,0.38 14.863,1.98 19.328,3.46 5.2,6.6 10.875,13.11 16.989,19.28 4.613,4.56 8.574,8.52 12.113,11.94 -0.637,17.36 -2.188,154.77 -6.863,167.38 -11.25,30.88 -60.547,7.82 -80.114,-1.19 z m 359.792,-377.32 c -2.98,47.31 -9.72,58.61 -9.72,58.61 -0.01,0.14 -0.01,0.19 -0.11,0.35 -2.89,28.35 -3.46,174.06 -36.5,235.7 -33.11,61.6 -68.18,82.66 -68.18,82.66 -19.555,9.01 -68.832,32.07 -80.118,1.19 -4.55,-12.43 -6.183,-149.5 -6.8,-166.52 1.625,-1.6 3.398,-3.35 5.246,-5.18 2.093,0.51 4.468,0.39 6.824,-0.32 5.344,-1.75 9.48,-5.44 11.008,-9.7 1.14,-3.58 0.57,-6.46 -0.09,-8.59 2.289,-2.66 4.551,-5.33 6.687,-8.01 4.461,-1.45 11.051,-3.13 19.375,-3.46 9.899,-0.44 16.25,1.61 20.25,1.74 1.348,0.74 2.582,1.58 3.648,2.86 5.78,13.16 -5.362,20.11 -14.737,27.71 -2.172,1.52 -3.829,2.75 -4.5,3.47 -2.637,2.62 -4.875,5.83 -5.77,9.24 -1.875,0.08 -5.305,2.06 -5.816,2.4 -0.114,0.07 -0.258,0.21 -0.375,0.28 -1.164,1.36 -2.176,2.75 -2.887,4.31 1.183,-1.13 2.648,-2.12 3.551,-2.73 1.125,-0.8 2.222,-1.5 3.5,-2.01 0.597,-0.23 1.105,-0.14 1.609,-0.09 -0.16,1.65 0,3.33 0.602,5 0.136,1.15 0.363,2.21 0.699,3.35 -0.067,-3.84 0.84,-7.59 2.699,-10.97 1.016,-2.83 2.641,-5.41 4.84,-7.88 7.25,8.48 5.262,22.17 -1.465,30.38 0.789,-0.53 1.574,-1.1 2.34,-1.7 6.551,-8.53 8.812,-22.23 0.785,-30.3 0.938,-0.91 1.984,-1.81 3.18,-2.73 1.234,-0.96 2.523,-1.95 3.711,-2.85 2.222,-1.41 4.324,-2.67 6.187,-3.83 0.727,-0.45 3.037,-2.14 5.007,-3.97 -0.87,5.41 -0.42,10.82 0.73,16.15 0.84,3.78 2.19,7.2 4.05,10.23 -0.18,0.12 -0.33,0.32 -0.4,0.45 -0.26,0.57 -0.5,1.22 -0.67,1.82 v 0.15 c -0.45,3.47 -0.45,7.59 1.18,10.83 -0.9,-3.92 0.01,-7.93 0.79,-11.87 2.75,3.9 6.46,6.94 11.19,8.62 0.9,0.01 1.8,0.01 2.58,-0.07 -0.22,-0.18 -0.49,-0.43 -0.72,-0.61 -10.53,-3.67 -15.29,-14.57 -16.08,-25.52 3.75,0.45 7.8,-0.88 11.74,0.26 1.3,0.44 2.54,1.13 3.75,1.89 2.67,1.02 5.14,2.67 6.3,4.92 -0.09,-0.55 -0.15,-1.11 -0.3,-1.64 -1.92,-2.58 -4.13,-4.91 -7.1,-6.6 -4.67,-2.58 -9.56,-1.11 -14.46,-0.88 -0.05,-3.38 0.17,-6.7 0.79,-9.75 0.79,-4.1 1.53,-8.16 1.04,-12 3.86,-1.3 7.96,-2.08 12.01,-1.71 3.32,-0.32 6.7,-0.04 9.4,2.08 3.59,2.84 6.01,6.65 8.14,10.63 -0.78,-2.68 -1.34,-5.4 -3.03,-7.73 -1.29,-1.8 -2.59,-3.22 -4.16,-4.32 h 0.26 c 6.49,-0.56 15.26,-2.83 20.39,2.7 -0.96,-2.05 -2.42,-3.88 -4.23,-5.4 -0.9,-0.36 -1.84,-0.6 -2.75,-0.78 -2.12,-0.35 -4.07,-0.38 -5.96,-0.21 -2.54,-0.14 -5.8,-0.09 -8.1,1.06 -1.75,-0.01 -3.55,-0.27 -5.29,-0.47 -5.53,-2.08 -12.03,-2.01 -17.65,0.49 -0.35,-0.82 -0.79,-1.64 -1.35,-2.5 -0.9,-1.39 -2.44,-2.78 -4.17,-3.69 0.95,-5.51 -7.837,-14.06 -26.88,-13.96 0.609,-0.88 1.195,-1.8 1.688,-2.91 1.054,-2.44 1.57,-4.96 1.566,-7.54 6.148,-9.75 11.066,-18.38 14.711,-24.44 1.199,-1.33 2.324,-2.71 3.488,-4.05 1.762,-0.78 2.949,-2.23 3.627,-3.94 0.11,-0.19 0.34,-0.37 0.42,-0.56 5.99,0.17 11.55,0.82 16.56,5.51 4.73,4.53 7.43,10.56 10.8,16.06 0.8,1.53 1.69,3.05 2.64,4.55 2.59,3.8 6.04,6.73 9.96,8.88 0,1.82 0.28,3.65 0.84,5.37 1.41,1.14 2.76,2.33 4.12,3.55 -0.68,-1.07 -1.25,-2.17 -1.8,-3.28 -0.59,-1.42 -0.68,-3.17 -1.13,-4.69 4.21,1.9 8.9,2.87 13.61,2.89 0.57,-0.12 1.1,-0.25 1.62,-0.47 0.68,-0.3 1.32,-0.67 1.98,-0.99 -13.5,0.04 -23.58,-6.49 -29.92,-18.23 5,-0.5 9.9,-0.68 14.28,1.12 -0.92,-1.17 -1.97,-2.27 -3.21,-3.05 -4.08,-1.38 -8.44,-1.65 -12.04,0 -0.05,-0.1 -0.11,-0.24 -0.19,-0.4 -3.82,-8.07 -5.48,-12.9 -12.18,-17.9 5.44,-1.15 10.58,-2.92 12.94,-3.7 5.66,-1.88 10.75,-2.92 16.65,-2.82 0.22,0 0.37,0.02 0.51,0.02 0.45,0.04 0.9,0.08 1.36,0.12 2.96,0.46 5.16,1.85 7.01,3.75 0.68,0.68 1.42,1.42 2.03,2.26 3.04,3.9 5.8,12.07 10.8,13.52 0.34,0.1 0.74,0.23 1.12,0.26 -5,-3.78 -7.01,-13.29 -9.72,-17.61 -0.74,-1.02 -1.53,-1.9 -2.47,-2.65 0.44,-0.15 0.89,-0.36 1.28,-0.57 1.09,-0.3 2.14,-0.66 3.27,-1.03 1.86,-0.7 4.12,-2.13 6.45,-3.02 5.54,-1.28 11.77,0 15.41,4.32 -0.04,-1.05 -0.09,-2.09 -0.32,-3.1 -2.09,-2.55 -5.05,-3.94 -8.88,-4.4 -5.28,-0.57 -9.26,2.05 -13.46,4.36 -2.25,0.66 -4.43,1.19 -6.74,1.57 -0.12,0.02 -0.23,0.02 -0.28,0.05 -1.91,-0.8 -4,-1.21 -6.07,-1.43 -15.18,-1.76 -31.91,13.45 -46.35,6.26 -1.679,-11.1 13.43,-19.28 21.87,-22.33 10.87,-3.84 22.9,-4.45 34.26,-5.23 6.2,-0.42 12.49,-0.87 18.56,-1.99 8.33,-1.46 12.99,-6.24 17.45,-13.06 -2.77,2.26 -5.43,5.15 -8.73,6.61 0.34,-5.99 0.67,-11.74 4.16,-16.88 -3.54,3.58 -5.74,6.76 -6.35,11.88 -0.59,5.79 -2.02,8.14 -8.24,8.77 -11.17,1.15 -22.08,0.52 -33.22,2.62 9.06,-4.05 18.29,-8.95 22.9,-18.23 2.36,-4.59 3.87,-9.16 7.2,-13.37 3.12,-3.95 9.11,-4.79 13.7,-6.53 5.76,-2.17 9.6,-4.59 12.64,-10.11 -5.78,6.16 -13.69,8.02 -21.51,10.67 7.32,-8.2 17.46,-21.22 8.05,-32.03 1.74,7.35 1.57,14.77 -2.7,21.27 -4.1,6.1 -9.6,11.7 -14.41,17.28 -0.67,-7.08 -3.14,-14.72 -9.45,-18.9 4,7.57 7.92,15.69 5.86,24.44 -2.03,8.37 -8.67,14.79 -16.03,18.88 -4.11,2.33 -8.62,3.98 -13.05,5.55 -0.11,-6.82 -2.24,-13.32 -1.94,-20.24 0.23,-5.52 1.43,-9.03 4.58,-13.28 -6.45,0.97 -6.75,14.57 -7.31,19.2 -3.09,-2.93 -6.49,-5.84 -9.06,-9.12 -3.21,-3.95 -3.21,-7.13 -3.6,-11.8 -6.07,12.69 9.05,17.06 12.94,27.05 3.26,8.6 -2.59,11.5 -9.51,14.05 -7.7,2.85 -14.45,8 -18.57,15.16 -0.63,1.06 -1.615,2.69 -2.743,3.91 -1.454,-1.32 -3.598,-1.7 -5.575,-1.12 -0.007,0 -0.015,0.01 -0.023,0.01 0.461,-2.75 0.855,-5.59 0.992,-8.45 0.586,-4.31 0.781,-8.69 0.109,-12.92 0.008,-0.03 0.016,-0.07 0.028,-0.1 l 0.859,-1.79 c 0.574,-0.78 1.067,-1.61 1.438,-2.46 l 1.035,-1.54 c 1.551,-1.59 2.68,-3.56 3.42,-5.98 0.05,-0.15 0.46,-1.41 0.64,-3.26 l 0.74,-2.2 c 0.53,-0.89 1,-1.8 1.45,-2.76 2.26,-4.85 3.95,-10.53 5.04,-16.88 0.56,-3.31 0.86,-6.52 1.05,-9.56 0.36,-2.33 0.62,-4.62 0.79,-6.86 16.89,-0.48 33.75,-16.88 44.59,-28.1 0.28,-0.65 0.56,-1.31 0.69,-1.87 -4.35,3.83 -8.81,7.88 -13.57,11.59 1.01,-3.04 0.73,-6.98 1.16,-10.17 -0.71,1.12 -1.44,2.34 -2.23,3.47 -0.06,0.51 -0.11,0.96 -0.22,1.4 -0.23,1.45 -0.4,2.88 -0.81,4.35 -0.3,1.28 -0.99,2.3 -1.22,3.53 -8.55,6.27 -17.86,11.23 -28.17,12.54 0.01,-0.05 0.01,-0.1 0.01,-0.15 0.39,-0.78 0.74,-1.57 1.09,-2.53 1.31,-3.33 2.31,-5.96 3.05,-8.66 1.85,-7.04 3.05,-13.4 3.65,-19.35 0.11,-1.26 0.01,-2.34 0.07,-3.55 0.42,-2.58 0.83,-5.12 1.06,-7.57 0.67,-7.95 0.27,-15.17 -1.19,-21.56 -0.46,-1.8 -0.9,-3.52 -1.53,-5.19 -0.05,-4 -1.35,-7.46 -3.54,-9.99 -0.73,-2.34 -2.09,-4.41 -4,-6.09 -1,-0.9 -2.11,-1.65 -3.29,-2.25 -1.35,-1.59 -2.87,-2.73 -4.24,-3.56 18.53,-6.19 33.31,-14.21 35.85,-24.34 1.39,-5.61 1,-11.56 -1.16,-17.69 -1.75,-4.83 -4.64,-9.78 -8.65,-14.84 16.88,-1.94 31.53,-0.73 43.9,2.13 14.73,3.39 26.27,9.19 34.42,14.97 5.91,4.18 10.02,8.28 12.37,11.49 8.25,11.31 13.5,43.63 10.47,91"
           style="fill:#b2b4b6;fill-opacity:1;fill-rule:nonzero;stroke:none"
           id="path12" />
        <path
           d="m 2082.5,1100.69 c -2.25,-15.58 -4,-31.25 -6.63,-46.72 -1.99,-11.1 -5.29,-21.96 -7.84,-32.92 -1.51,-6.73 -2.47,-13.51 -4.28,-20.15 -2.85,-10.74 -6.23,-21.259 -9.34,-31.841 -2.48,-8.45 -4.08,-17.219 -7.42,-25.25 -4.09,-9.778 -7.8,-19.649 -10.47,-29.918 -0.89,-3.379 -2.69,-6.52 -4,-9.789 -3.75,-9.391 -7.06,-19.071 -11.37,-28.293 -5.1,-10.75 -9.53,-21.778 -14.81,-32.368 -4.88,-9.66 -9.79,-19.382 -14.7,-29.101 -4.95,-9.86 -10.17,-19.629 -15.79,-29.149 -6.42,-10.871 -13.5,-21.421 -20.36,-32.109 -6.08,-9.543 -11.78,-19.301 -18.3,-28.523 -9.6,-13.778 -19.47,-27.368 -29.74,-40.618 -10.61,-13.609 -22.2,-26.421 -32.74,-40.05 -7.27,-9.399 -15.94,-17.36 -24.14,-25.743 -6.91,-7.058 -13.84,-14.089 -21.26,-20.617 -7.32,-6.441 -15.27,-12.14 -22.96,-18.152 -0.11,-0.168 -0.27,-0.348 -0.45,-0.359 -18.22,-8.36 -36.22,-16.969 -56.96,-17.981 -18.3,-0.848 -36.45,-0.508 -54.42,3.711 -1.94,0.391 -3.93,0.949 -5.77,1.738 -8.58,3.571 -17.29,6.91 -25.5,11.094 -6,3.117 -11.36,7.258 -16.91,11.066 -10.31,7.153 -18.63,16.153 -26.44,25.883 -9.68,12.09 -16.16,25.981 -22.8,39.649 -2.63,5.351 -3.49,11.601 -4.42,17.558 -1.88,11.953 -4.24,23.91 -3.49,36.094 0.83,14.258 2.21,28.367 6.49,42.039 3,9.508 6.15,19.07 10.28,28.09 2.35,5.199 6.22,9.988 10.11,14.148 10.13,10.801 20.89,21.039 30.98,31.922 9.97,10.66 19.46,21.86 28.91,32.879 3.42,3.949 6.6,8.211 9.68,12.41 1.76,2.321 3.33,4.821 4.95,7.211 2.21,3.219 4.39,6.539 6.64,9.739 2.52,3.671 5.13,7.199 7.6,10.921 4.44,6.848 8.82,13.707 13.1,20.641 3.96,6.406 8.62,12.539 11.7,19.398 6.3,14.129 16.05,26.551 20.32,41.739 9.26,15.672 13.65,33.371 20.63,49.961 3.34,7.93 4.35,16.8 7.5,24.88 7.68,20 11.02,40.96 14.88,61.89 2.93,15.88 5.74,31.78 7.39,47.84 1.92,18.67 2.48,37.4 2.52,56.15 0,24.77 -1.36,49.39 -3.87,73.98 -1.05,10.84 -3.71,21.49 -5.66,32.17 -0.6,3.27 -1.46,6.53 -1.88,9.8 -2.03,16.92 -5.7,33.35 -12.1,49.22 -1.22,3.08 -2.04,6.31 -2.63,9.55 -1.98,10.43 -5.73,20.18 -9.72,29.91 -3.22,7.71 -5.7,15.74 -8.74,23.54 -1.57,4.2 -3.82,8.2 -5.58,12.35 -3.3,7.6 -5.67,15.71 -9.98,22.65 -6.52,10.62 -10.42,22.82 -18.67,32.43 -1.05,1.19 -1.73,2.77 -2.4,4.21 -6.89,14.26 -16.31,26.79 -25.58,39.51 -0.93,1.18 -1.79,2.45 -2.54,3.75 -7.54,12.55 -16.59,23.95 -26.48,34.72 -10.39,11.34 -20.36,22.96 -30.83,34.15 -4,4.33 -8.4,8.46 -13.27,11.84 -17.77,12.51 -36.75,14.42 -56.67,5.22 -10.83,-5.03 -18.82,-13.48 -25.75,-22.84 -2.85,-3.96 -4.5,-9.29 -5.3,-14.25 -2.06,-12.01 -2.47,-24.16 1.47,-35.92 1.31,-3.87 3.56,-7.72 6.3,-10.8 9.97,-11.34 20.66,-22.07 30.49,-33.54 7.95,-9.28 14.81,-19.36 22.57,-28.79 10.81,-13.26 19.69,-27.69 27.79,-42.74 6.49,-12.02 13.16,-23.95 19.38,-36.18 3.24,-6.27 5.07,-13.26 8.44,-19.42 6.48,-11.75 9.45,-24.57 13.16,-37.25 2.48,-8.4 6.01,-16.5 8.11,-24.98 3.03,-12.08 4.94,-24.52 7.83,-36.67 6.12,-25.51 7.24,-51.48 7.46,-77.53 0.12,-16.32 0.08,-32.7 -1.12,-48.95 -0.79,-11.62 -3.37,-23.13 -5.4,-34.62 -1.91,-10.56 -3.49,-21.12 -6.07,-31.47 -3.19,-12.27 -7.43,-24.3 -11.03,-36.46 -2.06,-6.84 -3.49,-13.91 -6,-20.63 -2.99,-7.84 -6.71,-15.54 -10.31,-23.19 -2.63,-5.78 -5.44,-11.34 -8.25,-17.13 -1.8,-3.8 -3.57,-7.64 -5.59,-11.36 -4.05,-7.661 -8.18,-15.2 -12.45,-22.759 -7.35,-13.102 -14.96,-25.973 -24.79,-37.441 -4.42,-5.18 -7.87,-11.239 -12,-16.711 -9.15,-11.918 -19.53,-22.778 -30.07,-33.52 -7.24,-7.488 -14.29,-15.258 -21.57,-22.777 -2.39,-2.422 -5.05,-4.672 -7.91,-6.481 -4.83,-3.199 -9.6,-2.812 -13.87,1.059 -3.23,2.922 -5.85,6.371 -8.96,9.39 -10.58,10.54 -21.27,20.989 -31.87,31.461 -1.58,1.528 -3.24,3.028 -4.69,4.707 -3.95,4.762 -4.28,10 -0.79,15.082 1.61,2.36 3.79,4.45 5.81,6.54 8.36,8.5 16.98,16.878 25.17,25.628 7.38,7.872 14.69,15.762 21.29,24.313 7.54,9.789 14.29,20.199 21.26,30.389 2.3,3.42 4.54,6.86 6.63,10.45 3.05,5.18 5.9,10.56 8.82,15.76 1.39,2.52 2.93,4.88 4.28,7.35 2.14,3.78 4.32,7.56 6.15,11.44 3.98,8.71 8.44,17.26 11.51,26.25 5.18,14.92 10.24,30 13.91,45.39 3.42,14.57 5.06,29.57 7.32,44.45 1.24,7.84 2.62,15.71 3.07,23.67 0.57,10.86 1.01,21.8 0.26,32.67 -1.6,20.94 -3.75,41.91 -6.33,62.88 -1.92,15.1 -6.38,29.62 -10.73,44.25 -5.66,18.88 -14.74,36.29 -21.11,54.68 -0.23,0.58 -0.46,1.12 -0.71,1.67 -4.58,7.73 -8.74,15.72 -13.69,23.2 -6.97,10.9 -14.78,21.32 -21.83,32.2 -7.87,12.2 -17.32,22.94 -27,33.65 -8.99,9.92 -18.67,19.36 -26.54,30.1 -6.5,8.84 -11.75,18.88 -15.87,29.11 -6.67,16.49 -10.69,33.89 -11.47,51.74 -0.35,7.42 -0.23,15.06 1.2,22.28 2.28,11.82 5.7,23.52 8.92,35.15 0.94,3.35 2.7,6.52 4.39,9.54 2.48,4.63 4.91,9.36 7.92,13.63 4.04,5.71 8.73,10.98 12.89,16.7 9.61,13.1 22.77,22.01 36,30.96 12.23,8.32 26.25,12.04 40.35,15.74 10.05,2.63 20.17,4.88 30.76,4.22 9.21,-0.64 18.75,-0.56 27.63,-2.59 12.34,-2.8 24.9,-5.98 36.26,-11.41 16.61,-7.94 31.96,-18.27 44.18,-32.64 6.18,-7.25 13.31,-13.75 19.72,-20.93 9.68,-10.91 19.43,-21.86 28.53,-33.22 8.6,-10.85 16.65,-22.28 24.84,-33.48 1.79,-2.42 3.25,-5.12 4.98,-7.6 2.1,-3.22 4.5,-6.2 6.49,-9.45 3.94,-6.32 7.69,-12.77 11.51,-19.12 5.89,-9.93 11.93,-19.85 17.81,-29.83 1.58,-2.79 3.08,-5.7 3.98,-8.79 1.99,-6.45 5.02,-12.19 8.73,-17.81 2.67,-4 4.4,-8.59 6.46,-12.94 2.06,-4.44 3.52,-9.31 5.99,-13.46 4.65,-7.77 6.65,-16.45 9.6,-24.77 1.24,-3.4 2.55,-6.84 4.17,-10.03 3.82,-7.82 6.75,-15.97 8.88,-24.4 1.92,-7.82 5.07,-15.3 7.13,-23.1 2.89,-11.27 5.48,-22.68 7.91,-34.14 3.27,-15.78 6.9,-31.51 9.15,-47.48 2.4,-17.17 3.83,-34.51 4.83,-51.8 1.22,-19.82 1.4,-39.68 2.11,-59.55 0.71,-20.92 -1.5,-41.73 -3.52,-62.46 -1.32,-13.61 -2.44,-27.33 -4.61,-40.83 -1.91,-12.22 -5.25,-24.21 -7.92,-36.37 -1.02,-4.81 -1.57,-9.75 -2.7,-14.54 -1.91,-7.81 -3.86,-15.62 -6.11,-23.34 -2.59,-9.23 -5.29,-18.38 -8.29,-27.51 -1.8,-5.5 -4.16,-10.91 -6.3,-16.37 -2.47,-6.59 -4.87,-13.129 -7.42,-19.731 -1.92,-4.91 -3.63,-9.848 -5.7,-14.57 -3.45,-8 -7.05,-15.879 -10.77,-23.688 -4.98,-10.09 -9.74,-20.32 -15.14,-30.199 -7.88,-14.473 -16.24,-28.523 -24.46,-42.75 -0.89,-1.59 -1.98,-3.051 -2.99,-4.562 -3.61,-5.188 -7.09,-10.461 -10.8,-15.622 -6.75,-9.539 -13.54,-19.257 -20.63,-28.648 -5.96,-7.969 -12.23,-15.738 -18.68,-23.34 -9.11,-10.64 -18.41,-21.101 -27.78,-31.539 -4.16,-4.633 -9.08,-8.641 -12.9,-13.59 -4.65,-6 -8.93,-12.422 -12.64,-19.133 -4.91,-8.687 -4.24,-18.437 -3.68,-28.058 0.56,-8.391 3.72,-15.629 9.12,-22.039 1.91,-2.25 3.52,-4.903 5.4,-7.211 15.63,-19.27 42.19,-27.731 66.48,-14.699 9.87,5.347 17.55,12.789 25.17,20.558 8.09,8.27 15.67,16.992 23.51,25.582 5.21,5.699 10.57,11.328 15.6,17.239 4.46,5.332 8.51,10.96 12.82,16.421 7.25,9.149 14.93,18.071 21.68,27.539 6.86,9.579 12.44,20.04 19.47,29.532 5.95,8.047 11.21,16.449 15.97,25.136 3.37,6.313 7.16,12.364 10.79,18.524 1.21,2.137 2.52,4.117 3.71,6.277 2.93,5.141 5.82,10.281 8.71,15.449 3.86,7 8.06,13.75 11.32,21.024 6.79,15.019 13.25,30.058 19.43,45.308 5.21,12.801 9.61,25.911 14.63,38.731 4.5,11.348 9.37,22.5 11.62,34.629 1.09,5.63 2.44,11.27 4.61,16.56 5.06,12.15 6.08,25.26 9.3,37.8 8.82,34.04 13.66,68.57 15.68,103.61 0.75,13.28 2.52,26.5 2.92,39.84 0.64,16.21 0.75,32.43 0.34,48.7 -0.37,14.78 -1.5,29.56 -2.7,44.34 -1.24,15.52 -3.19,30.92 -4.5,46.41 -1.5,18.43 -5.62,36.37 -9.94,54.37 -2.89,12 -4.8,24.3 -7.76,36.36 -3.49,14.27 -7.53,28.44 -11.66,42.53 -1.47,4.95 -3.83,9.58 -5.75,14.3 -1.53,3.86 -3.4,7.61 -4.41,11.57 -2.93,11.88 -9.31,22.36 -13.09,33.81 -3.72,11.22 -9.75,21.17 -14.25,31.97 -3.34,8.03 -6.41,16.08 -11.44,23.28 -1.02,1.35 -1.69,2.98 -2.28,4.57 -2.93,7.58 -6.71,14.62 -11.67,21.07 -2.03,2.53 -3.15,5.63 -4.73,8.46 -3.63,6.2 -7.23,12.5 -11.02,18.67 -7.84,12.63 -15.46,25.5 -23.74,37.83 -7.8,11.5 -16.2,22.59 -24.74,33.51 -9.46,12.14 -19.13,24.19 -29.37,35.7 -10.92,12.41 -22.5,24.16 -33.87,36.19 -5.05,5.3 -10.15,10.62 -15.37,15.82 -3.34,3.35 -7.01,6.43 -10.39,9.71 -4.98,4.87 -5.44,11.09 -0.56,16.12 9.49,9.75 19.31,19.17 28.99,28.75 4.83,4.87 9.6,9.75 14.44,14.65 1.13,1.14 2.21,2.32 3.52,3.33 6.23,5.03 11.44,4.44 16.91,-1.41 6.79,-7.13 13.76,-14.07 20.59,-21.17 6.86,-7.05 13.61,-14.13 20.25,-21.28 7.36,-7.85 14.82,-15.65 21.82,-23.9 7.77,-9.11 15.08,-18.6 22.54,-27.95 1.69,-2.07 3.23,-4.17 4.84,-6.21 6.87,-8.56 14.14,-16.84 20.59,-25.69 6.72,-9.2 12.71,-18.85 19.01,-28.35 7.5,-11.42 15.27,-22.69 22.36,-34.45 6.52,-10.95 12.18,-22.37 18.26,-33.62 1,-1.85 2.24,-3.6 3.22,-5.46 2.89,-5.63 5.78,-11.27 8.59,-16.97 1.76,-3.44 3.4,-7.05 5.21,-10.56 2.22,-4.19 4.61,-8.24 6.71,-12.46 4.28,-8.99 8.78,-17.92 12.71,-27.08 4.4,-10.05 8.29,-20.32 12.27,-30.52 0.79,-2.03 1.23,-4.07 1.94,-6.07 2.78,-7.68 5.07,-15.59 8.41,-23 3.56,-8.05 5.88,-16.45 8.07,-24.98 2.09,-8.33 4.94,-16.56 7.3,-24.93 2.1,-7.47 3.95,-14.98 5.78,-22.5 3.44,-14.2 7.31,-28.35 9.89,-42.73 3.28,-17.85 5.41,-35.87 7.92,-53.82 1.84,-12.98 3.64,-25.97 5.1,-39.03 1.13,-9.59 1.76,-19.22 2.17,-28.89 0.75,-17.15 1.05,-34.28 1.58,-51.41 0.49,-27.71 -1.46,-55.25 -4.09,-82.83 -1.2,-12.17 -3.67,-24.31 -5.4,-36.46 z m -858.27,1087.9 c -532.628,0 -964.402,-431.78 -964.402,-964.38 0,-203.37 63.086,-391.839 170.547,-547.409 2.363,83.078 18.426,174.937 32.738,215.937 14.977,43.043 30.039,90.153 24.977,144.172 -4.977,54.11 -2.949,108.17 4.051,136.18 6.984,28.04 10.011,26.01 -1.02,83.12 -11.008,57.05 11.031,120.15 45.055,180.2 34.039,60.06 107.164,61.1 126.179,75.07 19.008,14.03 56.02,22.06 91.098,42.07 35.024,20.03 58.074,26.04 58.074,40.09 0,13.97 1.012,51.02 -13.043,81.05 -14.019,30.06 -14.019,60.1 -14.019,60.1 -15,-8.06 -16.027,6.02 -29.027,33.03 -12.989,27.02 -16.985,45.04 -14,59.07 3.015,14.02 16.027,12.02 16.027,12.02 0,0 -23.063,87.1 22,143.18 36,44.72 90.445,53.14 110.926,54.68 v 0.38 c 0,0 1.511,0 4.097,-0.13 2.653,0.13 4.164,0.13 4.164,0.13 v -0.38 c 20.473,-1.54 74.926,-9.91 110.878,-54.68 45.05,-56.08 22.05,-143.18 22.05,-143.18 0,0 13.02,2 15.98,-12.02 3.03,-14.03 -1.01,-32.05 -14.02,-59.07 -12.99,-27.01 -14,-41.09 -28.99,-33.03 0,0 0,-30.04 -14.03,-60.1 -13.981,-30.03 -13.004,-67.08 -13.004,-81.05 0,-14.05 23.014,-20.06 58.044,-40.09 35.06,-20.01 72.08,-28.04 91.13,-42.07 19.01,-13.97 92.1,-15.01 126.16,-75.07 34.02,-60.05 56.07,-123.15 45.08,-180.2 -11.06,-57.11 -8.07,-55.08 -1.02,-83.12 6.98,-28.01 9.01,-82.07 3.98,-136.18 -4.95,-54.019 10.05,-101.129 25.05,-144.172 15,-43.027 32.02,-142.148 33,-228.258 1.01,-86.089 11.02,-166.218 24.04,-192.21 13.02,-26.098 60.08,-42 71.14,-76.122 10.98,-34.007 24.02,-54.039 33,-62.027 8.99,-8.031 -19.01,-23.062 -32.03,0 -13.01,22.949 -22.05,34.981 -30.03,30.988 -7.5,-3.699 1.6,-40.789 11.05,-81.668 430.66,96.59 752.51,481 752.51,940.769 0,532.6 -431.76,964.38 -964.39,964.38 z m 63.02,-1731.379 c 7.34,36.969 -84.33,198.277 -94.75,335.82 -10.35,137.559 -29.52,244.079 -36.95,251.479 -7.41,7.37 -50.29,-130.19 -32.57,-202.67 17.81,-72.442 19.27,-108.008 20.76,-121.27 1.47,-13.34 7.36,-68.07 14.75,-128.73 7.31,-60.18 51.06,-124.899 28.56,-331.141 12.37,-0.429 24.69,-0.91 37.18,-0.91 32.08,0 63.84,1.66 95.11,4.723 -1.8,4.48 -3.71,9.398 -5.51,15.16 -19.24,60.637 -34.02,140.566 -26.58,177.539 z M 633.438,1044.51 c -7.375,-7.4 -26.614,-113.92 -36.922,-251.479 -6.164,-81.293 -40.653,-170.742 -66.34,-238.07 21.301,-22.07 43.652,-43.141 66.976,-63.18 4.786,43.258 12.211,72.239 15.598,100.059 7.418,60.66 31.09,115.39 32.555,128.73 1.465,13.262 2.922,48.828 20.695,121.27 17.727,72.48 -25.137,210.04 -32.562,202.67"
           style="fill:#231f20;fill-opacity:1;fill-rule:evenodd;stroke:none"
           id="path14" />
        <path
           d="m 502.426,1997.94 c 180.738,168.67 420.594,274.75 685.074,283.79 v 166.68 C 877.004,2439.23 595.535,2314.56 384.527,2115.77 l 117.899,-117.83"
           style="fill:#231f20;fill-opacity:1;fill-rule:nonzero;stroke:none"
           id="path16" />
        <path
           d="m 450.453,1945.98 -117.84,117.87 C 133.84,1852.88 9.17578,1571.4 0,1260.94 h 166.688 c 9.039,264.5 115.125,504.33 283.765,685.04"
           style="fill:#231f20;fill-opacity:1;fill-rule:nonzero;stroke:none"
           id="path18" />
        <path
           d="m 2063.9,2115.77 c -210.97,198.79 -492.44,323.46 -802.9,332.64 v -166.68 c 264.52,-9.04 504.37,-115.12 685.04,-283.79 l 117.86,117.83"
           style="fill:#231f20;fill-opacity:1;fill-rule:nonzero;stroke:none"
           id="path20" />
        <path
           d="M 166.688,1187.4 H 0 C 9.17578,876.941 133.84,595.461 332.613,384.52 l 117.84,117.851 C 281.813,683.09 175.727,922.949 166.688,1187.4"
           style="fill:#231f20;fill-opacity:1;fill-rule:nonzero;stroke:none"
           id="path22" />
        <path
           d="M 384.527,332.539 C 595.535,133.809 877.004,9.14063 1187.5,0 v 166.66 c -264.48,9 -504.336,115.102 -685.074,283.77 L 384.527,332.539"
           style="fill:#231f20;fill-opacity:1;fill-rule:nonzero;stroke:none"
           id="path24" />
        <path
           d="M 1998.02,502.371 2115.88,384.52 c 198.71,210.941 323.44,492.421 332.62,802.88 H 2281.78 C 2272.71,922.949 2166.69,683.09 1998.02,502.371"
           style="fill:#231f20;fill-opacity:1;fill-rule:nonzero;stroke:none"
           id="path26" />
        <path
           d="m 2281.78,1260.94 h 166.72 c -9.18,310.46 -133.91,591.95 -332.62,802.91 l -117.86,-117.87 c 168.67,-180.71 274.72,-420.54 283.76,-685.04"
           style="fill:#231f20;fill-opacity:1;fill-rule:nonzero;stroke:none"
           id="path28" />
        <path
           d="M 1261,166.66 V 0 c 310.46,9.14063 591.93,133.809 802.9,332.539 L 1946.04,450.43 C 1765.37,281.762 1525.48,175.66 1261,166.66"
           style="fill:#231f20;fill-opacity:1;fill-rule:nonzero;stroke:none"
           id="path30" />
        <path
           d="m 1016.1,1913.31 c 1.35,1.58 1.53,5.03 1.01,6.8 -0.61,2.28 -2.13,3.4 -3.98,3.6 0,0.04 0.04,0.05 0.11,0.13 2.7,3.14 1.62,7.35 0.11,10.7 -0.45,1.1 0.5,1.67 0.79,2.62 0.23,0.91 0.23,1.55 0.05,2.49 -0.19,1.08 -0.9,2.56 -2.07,3.31 -0.34,0.22 -0.74,0.4 -1.08,0.58 0,0 0.06,0.02 0.07,0.02 2.74,2.08 3.82,5.2 2.74,8.09 -0.72,1.87 -2.25,5.04 -5.21,5.56 -0.08,0 -0.19,0 -0.3,0.05 0.11,0.15 0.26,0.33 0.38,0.54 1.37,2.54 -0.77,6.93 -1.67,9.45 -1.24,3.48 -3.32,6.89 -5.74,10.04 -2.134,2.72 -6.747,5.34 -10.372,7.07 -0.825,3.15 -2.333,6.43 -4.793,8.58 -1.997,1.79 -4.52,2.88 -6.657,2.15 -0.136,0.35 -0.394,0.64 -0.675,0.89 -2.875,2.75 -7.313,4.08 -10.688,6.43 -2.59,1.8 -5.687,3.84 -9.223,4.51 -1.531,0.31 -3.148,-0.03 -4.386,-0.73 -1.188,1.15 -4.051,1.95 -5.461,2.57 -2.817,1.25 -5.516,2.5 -8.18,3.88 -4.906,2.55 -11.172,2.07 -16.836,2.22 -3.613,0.08 -7.164,-0.43 -10.312,-1.52 -2.551,0.1 -5.227,-0.86 -7.539,-1.53 -3.422,-0.99 -6.684,-3.25 -7.836,-5.9 -0.649,-1.62 -0.942,-3.18 -0.762,-4.87 0.113,-1.78 1.289,-3.33 1.574,-5.07 0.227,-1.58 -0.101,-3.03 -0.449,-4.49 -1.352,-3.44 -2.594,-6.75 -2.426,-10.52 0.113,-2.8 2.195,-5.32 3.324,-7.95 0.5,-1.12 0.676,-2.28 0.785,-3.49 -0.585,-2.81 -1.296,-5.63 -1.793,-8.43 -0.585,-3.36 -1.464,-7.04 0.235,-10.25 0.973,-1.82 3.301,-2.55 5.613,-1.9 -5.129,-3.55 -8.238,-7.83 -8.652,-13.28 -0.074,-1.03 0.32,-1.82 0.976,-2.43 -1.839,-1.83 0.473,-6.3 1.707,-7.72 1.289,-1.57 2.868,-2.44 4.551,-2.85 -5.558,-2.62 -5.769,-9.5 -5.109,-13.95 0.277,-2.06 1.687,-3.4 3.652,-4.24 -0.676,-0.13 -1.351,-0.38 -1.965,-0.82 -3.211,-2.19 -2.836,-6.11 -3.148,-9.08 -0.344,-3.6 -1.692,-7.21 1.25,-10.35 0.375,-0.38 0.863,-0.68 1.387,-0.95 -1.512,-0.83 -2.289,-2.41 -1.762,-4.58 0.25,-1.3 1.375,-2.65 2.023,-3.85 0.864,-1.57 0.25,-3.3 0.227,-4.95 -0.039,-0.8 0.586,-1.35 1.488,-1.78 -1.574,-2.4 -1.574,-5.25 -0.515,-8.15 0.675,-1.87 1.687,-3.95 3.437,-5.44 -3.262,-4.31 5.488,-11.54 10.246,-13.73 4.731,-2.18 8.543,-1.78 13.203,0.37 2.285,1.06 4.989,1.32 6.864,2.85 0.062,0.09 0.062,0.1 0.113,0.16 1.277,-0.53 2.762,-0.96 4.387,-1.11 7.203,-0.75 11.476,4.71 15.25,8.38 2.64,2.54 5.339,4.4 9.164,5.92 3.55,1.43 7.148,2.8 10.636,4.33 2.336,1.08 4.211,2.32 4.102,4.47 0,0.98 -0.277,2.05 -0.746,3.06 4.406,0.39 9.633,3.32 12.183,5.57 3.25,2.82 9.707,2.82 11.888,6.3 0.98,1.57 1.57,3.92 0.93,5.83 0.22,-0.01 0.56,-0.06 0.8,-0.01 4.42,0.16 6.06,3.48 7.61,6.07 2.06,3.36 4.16,7.59 4.3,11.28 0.05,1.28 -0.34,2.53 -0.7,3.8 v 0.42 c -0.08,1.86 0.52,3.21 1.87,4.83 z M 886,1948.94 c 2.254,-0.65 4.551,0.08 5.563,1.9 1.73,3.21 0.847,6.89 0.222,10.25 -0.496,2.8 -1.172,5.62 -1.797,8.43 0.114,1.21 0.34,2.37 0.789,3.49 1.075,2.63 3.211,5.15 3.325,7.95 0.199,3.77 -1.012,7.08 -2.426,10.52 -0.336,1.46 -0.676,2.91 -0.387,4.49 0.227,1.74 1.438,3.29 1.516,5.07 0.175,1.69 -0.055,3.25 -0.727,4.87 -1.148,2.65 -4.41,4.91 -7.832,5.9 -2.293,0.67 -5,1.63 -7.531,1.53 -3.192,1.09 -6.688,1.6 -10.352,1.52 -5.675,-0.15 -11.925,0.33 -16.812,-2.22 -2.699,-1.38 -5.403,-2.63 -8.211,-3.88 -1.414,-0.62 -4.277,-1.42 -5.402,-2.57 -1.297,0.7 -2.911,1.04 -4.383,0.73 -3.559,-0.67 -6.7,-2.71 -9.289,-4.51 -3.375,-2.35 -7.813,-3.68 -10.688,-6.43 -0.277,-0.25 -0.5,-0.54 -0.64,-0.89 -2.172,0.73 -4.7,-0.36 -6.668,-2.15 -2.446,-2.15 -3.993,-5.43 -4.782,-8.58 -3.597,-1.73 -8.238,-4.35 -10.347,-7.07 -2.465,-3.15 -4.5,-6.56 -5.801,-10.04 -0.902,-2.52 -3.035,-6.91 -1.625,-9.45 0.086,-0.21 0.223,-0.39 0.336,-0.54 -0.113,-0.05 -0.176,-0.05 -0.281,-0.05 -2.981,-0.52 -4.469,-3.69 -5.215,-5.56 -1.028,-2.89 -0.016,-6.01 2.73,-8.09 l 0.067,-0.02 c -0.336,-0.18 -0.739,-0.36 -1.075,-0.58 -1.125,-0.75 -1.851,-2.23 -2.062,-3.31 -0.125,-0.94 -0.125,-1.58 0.098,-2.49 0.226,-0.95 1.238,-1.52 0.765,-2.62 -1.551,-3.35 -2.59,-7.56 0.141,-10.7 0.008,-0.08 0.047,-0.09 0.082,-0.13 -1.887,-0.2 -3.348,-1.32 -4.024,-3.6 -0.472,-1.77 -0.324,-5.22 1.063,-6.8 1.348,-1.62 1.91,-2.97 1.859,-4.83 v -0.42 c -0.359,-1.27 -0.785,-2.52 -0.672,-3.8 0.161,-3.69 2.188,-7.92 4.246,-11.28 1.606,-2.59 3.18,-5.91 7.622,-6.07 0.257,-0.05 0.519,0 0.843,0.01 -0.675,-1.91 -0.113,-4.26 0.903,-5.83 2.136,-3.48 8.636,-3.48 11.859,-6.3 2.551,-2.25 7.766,-5.18 12.215,-5.57 -0.512,-1.01 -0.738,-2.08 -0.789,-3.06 -0.113,-2.15 1.738,-3.39 4.168,-4.47 3.422,-1.53 7.058,-2.9 10.625,-4.33 3.781,-1.52 6.48,-3.38 9.109,-5.92 3.785,-3.67 8.047,-9.13 15.297,-8.38 1.578,0.15 3.078,0.58 4.352,1.11 0.039,-0.06 0.074,-0.07 0.101,-0.16 1.91,-1.53 4.61,-1.79 6.91,-2.85 4.653,-2.15 8.403,-2.55 13.117,-0.37 4.833,2.19 13.614,9.42 10.286,13.73 1.761,1.49 2.757,3.57 3.437,5.44 1.063,2.9 1.125,5.75 -0.453,8.15 0.875,0.43 1.465,0.98 1.465,1.78 0,1.65 -0.625,3.38 0.16,4.95 0.715,1.2 1.805,2.55 2.09,3.85 0.5,2.17 -0.285,3.75 -1.801,4.58 0.563,0.27 1.066,0.57 1.352,0.95 2.972,3.14 1.629,6.75 1.324,10.35 -0.313,2.97 0.023,6.89 -3.188,9.08 -0.562,0.44 -1.234,0.69 -1.964,0.82 1.964,0.84 3.39,2.18 3.687,4.24 0.641,4.45 0.414,11.33 -5.137,13.95 1.731,0.41 3.262,1.28 4.575,2.85 1.238,1.42 3.515,5.89 1.714,7.72 0.649,0.61 1.012,1.4 0.95,2.43 -0.387,5.45 -3.539,9.73 -8.602,13.28"
           style="fill:#b2b4b6;fill-opacity:1;fill-rule:nonzero;stroke:none"
           id="path32" />
        <path
           d="m 1083.79,657.148 c 0,0 6.96,15.231 -1.95,28.262 0,0 7.5,13.61 -7.96,31.231 0,0 8.63,11.007 -4.23,30.339 0,0 7.49,14.641 -3.79,34.602 0,0 7.17,6.078 1.43,19.859 0,0 7.16,6.59 3.55,20.93 0,0 17.22,8.609 10.69,30.27 0,0 0.22,0.558 0.46,1.519 4.2,4.488 11.17,27.949 -5.64,36.449 -9.89,5.051 -16.94,3.2 -22.79,1.582 -3.63,-0.98 -6.79,-1.972 -10.06,-1.351 -8.44,1.621 -18.4,9.672 -30.48,5.39 -12.11,-4.281 -12.33,-15.878 -12.25,-19.742 0,0 -17.18,-7.039 -14.106,-21.136 0,0 -15.336,-3.731 -16.726,-20.543 0,0 -17.286,-2.469 -17.895,-22.5 0,0 -22.566,-2 -24.527,-19.528 0,0 -20.813,5.059 -31.5,-2.359 0,0 -26.391,3.469 -37.864,-7.262 -1.8,1.641 -6.464,5.238 -13.324,6.801 -5.062,1.371 -11.426,1.598 -18.789,-1.051 -0.559,0.371 -1.375,0.899 -2.387,1.442 -3.339,3.437 -12.234,10.539 -25.464,5.238 0,0 -3.317,12.48 -28.536,8.219 -0.597,0.703 -1.886,1.921 -4.089,3.101 -0.043,0.102 -0.165,0.149 -0.274,0.16 -0.289,0.219 -0.562,0.391 -0.887,0.512 -4.234,2.477 -11.597,4.609 -23.25,1.629 -3.933,1.68 -15.687,4.891 -25.168,-8.563 0,0 -19.207,1.872 -27.593,-13.128 -8.489,-15.098 -0.453,-25.079 -0.453,-25.079 0,0 -9.5,-3.511 -6.52,-15.66 0,0 -8.668,-8.621 -5.516,-24.551 0,0 -5.558,-6.582 -3.043,-25.121 0,0 -9.707,-15.14 -2.746,-31.621 0,0 -4.836,-9.097 3.039,-32.656 0,0 -10.918,-17.012 5.625,-34.441 0,0 -7.425,-44.61 33.578,-48.942 0,0 9.958,-30.508 46.645,-20.929 0,0 10.426,-24.739 46.914,-9.34 36.551,15.351 15.336,75.609 -8.789,108.89 -24.074,33.2 -72.922,62.391 -66.629,84.45 6.234,22.039 40.649,25.121 54.707,24.3 3.797,-0.238 17.192,-0.379 35.438,-0.109 5.847,-4.789 24.199,-3 29,0.621 6.597,-8.891 35.461,-12.621 54.523,0.598 -0.301,-0.321 19.496,-8.828 32.887,6.129 4.687,0.671 9.187,1.363 13.469,2.152 5.015,-0.789 11.843,-0.449 20.73,3.43 1.77,0.789 3.293,1.8 4.688,2.918 2.707,0.961 5.125,2.031 7.203,3.14 36.959,19.883 43.649,-89.758 31.269,-119.679 -4.83,-11.641 -10.8,-49.899 -5.33,-62.938 1.62,-4.051 -11.592,-9.25 -12.553,-12.551 -6.687,-23.23 -13.5,-24.383 -29.523,-26.32 -11.699,-1.402 -24.363,3.187 -36.402,7.801 -18.727,7.09 -36,14.258 -45.563,-0.891 -15.754,-24.973 -21.637,-59.789 -21.637,-59.789 0,0 -6.937,-21.492 2.688,-40.391 11.754,-23.339 17.828,-16.601 17.379,-33.16 -0.571,-16.57 3.547,-27.133 6.469,-35.011 2.867,-7.899 21.988,-6.711 24.863,1.871 2.926,8.668 3.426,24.738 1.625,32.668 -1.875,7.929 17.551,29.98 13.949,57.652 0,0 21.219,-29.231 50.352,-11.699 0,0 40.733,-10.352 46.293,28.847 0,0 23.96,-1.839 24.36,35.032 0,0 17.97,1.121 12.68,32.468 0,0 14.09,8.5 8.58,29.711 0,0 17.33,6.442 10.01,33.418 0,0 18.84,9.742 1.14,44.41"
           style="fill:#939598;fill-opacity:1;fill-rule:nonzero;stroke:none"
           id="path34" />
        <path
           d="m 1079.52,1015.27 c -1.96,-0.58 -3.75,-1.25 -5.87,-1.73 -9.28,-2.17 -19.23,-3.27 -29.31,-3.27 h -0.04 c -5.64,0 -11.49,0.32 -17.28,1.04 -1.68,0.2 -3.23,0.31 -4.88,0.5 -5.63,-5.83 -12.63,-11.849 -21.26,-18.15 -22.942,-16.808 -36.509,-27.769 -50.876,-39.371 -5.649,-4.559 -11.391,-9.199 -17.832,-14.297 -17.285,-13.621 -38.027,-20.012 -49.629,-22.043 -6.023,-5.801 -19.137,-9.34 -40.742,-14.808 -3.688,-0.93 -7.426,-1.879 -11.125,-2.86 -17.586,-4.609 -22.293,-8.562 -27.461,-14.051 -3.805,-4.05 -8.531,-6.71 -12.84,-9.019 -4.086,-7.313 -7.078,-15.492 -8.324,-25.02 -1.801,-13.832 0,-29.031 6.801,-41.382 5.664,-1.411 9.847,-3.899 12.437,-6.598 2.074,0.379 4.137,0.621 6.16,0.621 9.266,0 16.004,-4.371 19.879,-7.82 6.59,1.738 13.223,1.738 19.41,0 4.727,-1.032 8.606,-2.981 11.489,-4.793 11.773,6.812 29.238,6.371 36.074,5.742 4.801,2.527 10.988,3.82 18.367,3.82 3.422,0 6.797,-0.261 9.496,-0.633 4.445,10.204 14.688,15.383 23.18,17.473 0.449,2.27 1.183,4.289 1.969,6.168 -10.911,2.301 -22.5,1.652 -33.411,-0.391 -17.886,-3.308 -34.3,-13.168 -52.714,-14.089 -9.973,-0.52 -20.098,2.613 -27.895,9.05 -2.141,1.789 -4.441,4.2 -4.73,9.821 -0.161,4.98 -2.098,7.812 -4.047,9.41 -0.84,0.73 -1.625,1.121 -2.25,1.492 l 0.297,0.188 c 5.664,3.32 4.832,14.73 5.55,18.871 4.227,-4.582 12.192,-4.879 15.813,-5.051 14.937,-0.551 13.613,12.621 15.465,6.609 4.785,-15.367 29.984,-21.008 43.461,-23.25 19.375,-3.211 39.398,-2.097 58.726,2.262 0.641,0.32 1.274,0.66 1.875,0.879 2.586,11.012 10.125,16.781 15.524,19.519 0.742,9.95 8.175,17.082 14.628,20.93 1.083,10.723 7.145,18.672 16.985,22.121 3.11,1.102 6.36,1.68 9.63,1.68 6.9,0 12.98,-2.469 17.82,-4.449 2.55,-0.993 4.95,-1.993 6.82,-2.36 2.18,-0.062 3.87,0.449 6,0.957 2.14,0.653 4.45,1.121 6.94,1.473 3.81,5.437 7.28,11.098 10.09,17.078 13.35,28.359 22.5,66.672 11.63,97.731"
           style="fill:#b2b4b6;fill-opacity:1;fill-rule:nonzero;stroke:none"
           id="path36" />
        <path
           d="m 909.688,1285.13 c -1.704,-2.87 -1.79,-6.89 -0.196,-12.04 0.051,-0.11 0,-0.25 -0.054,-0.33 -0.118,-0.1 -7.821,-7.83 -12.813,-16.73 0.742,0.22 1.496,0.4 2.305,0.4 4.886,0 8.511,-2.73 11.261,-4.69 0.887,-0.65 1.825,-1.39 2.868,-1.93 0.894,0.33 1.937,0.52 2.988,0.52 l 2.207,-0.26 c 0.598,-0.15 1.078,-0.4 1.516,-0.62 l 0.312,1.12 c 0.41,1.72 0.949,3.65 1.652,5.53 0.438,1.24 0.907,2.19 1.407,3.23 0.437,1.05 1.039,2.2 1.707,3.29 0.761,1.17 1.48,2.13 2.168,3 0.652,0.77 1.347,1.58 2.179,2.37 1.258,1.2 2.508,2.19 3.848,2.99 -0.117,0.05 0.398,0.5 1.23,0.9 7.383,3.87 14.61,4.87 10.223,5.31 -0.094,0 -0.219,0.11 -0.219,0.28 0.071,0.13 0.157,0.32 0.309,0.32 0.148,0 12.687,0.19 18.297,0.41 5.676,0.17 6.07,0.71 7.074,3.23 1.219,3.12 1.277,5.92 0.238,8.41 -1.039,2.42 -1.855,3.08 -3.734,3.08 -0.305,0 -0.66,0 -0.965,0 -0.676,-0.08 -4.031,-0.32 -8.601,-0.57 -12.493,-0.87 -35.782,-2.36 -39.34,-2.8 -2.102,-0.26 -5.922,-1.13 -7.867,-4.42 z m -13.887,17.27 c -4.098,-3.91 -15.016,-11.38 -17.981,-21.19 -1.367,-4.75 -2.199,-13.72 -0.601,-22.15 5.129,0.78 11.183,-0.04 16.336,-2.17 4.039,7.58 10.093,14.26 12.629,17.04 -1.34,5.23 -0.981,9.6 1.046,12.92 1.95,3.24 5.528,5.39 10.028,5.93 2.894,0.28 18.203,1.33 30.773,2.15 -0.621,1.08 -1.593,2.52 -3.093,4.57 -5.817,7.76 -5.817,7.97 -5.442,12.14 0.211,4.11 2.012,11.77 2.84,14.05 0.598,2.3 1.656,4.2 1.258,5.49 -0.442,1.27 -2.141,3.46 -5.586,4.61 -3.445,1.1 -4.125,-0.53 -4.567,-1.15 -0.296,-0.73 -2.789,-6.88 -3.656,-14.42 -0.82,-7.47 -2.418,-6.86 -2.769,-3.77 -0.344,3.02 -0.098,9.74 0.289,13.72 0.465,3.99 0.465,5.39 -0.059,5.82 -0.371,0.36 -1.879,1.59 -4.965,1.37 -3.078,-0.19 -5.265,-1.33 -5.265,-2.1 0,-0.73 -0.524,-11.99 -0.801,-14.64 -0.258,-2.59 -1.699,-8.44 -2.785,-6.17 -1.121,2.22 -2.008,4.77 -2.399,10.55 -0.293,5.75 0.449,9.39 0,9.81 -0.371,0.45 -2.988,1.52 -5.828,1.09 -2.758,-0.42 -6.723,-2.31 -6.57,-3.89 0,-1.62 0.746,-10.33 0.832,-15.94 0.066,-5.58 0.363,-9.86 -3.664,-13.67 z m -41.606,-36.57 c 1.559,-7.58 2.09,-13.03 1.34,-17.95 6.645,5.56 13.004,9.01 18.981,10.53 -1.586,8.79 -0.832,18.31 0.75,23.7 0.808,2.76 2.297,5.24 3.894,7.55 1.543,3.95 3.93,6.04 6.176,7.23 2.035,1.85 3.98,3.66 5.68,5.08 1.195,0.98 2.172,1.82 2.914,2.59 2.394,2.19 2.808,4.57 2.843,8.37 -2.023,-0.2 -5.07,-0.53 -9.144,-0.82 -7.59,-0.47 -9.68,-1.33 -12.449,3.38 -2.754,4.68 -4.25,7.47 -4.25,7.47 l -12.981,-12.08 c 0,0 3.715,-5.81 0.496,-13.54 -3.179,-7.68 -7.382,-16.41 -4.25,-31.51 z m 158.215,-142.48 c -0.54,5.64 -1.65,11.81 -3.42,18.69 -0.76,2.86 -1.82,5.58 -2.8,8.18 l -0.2,0.49 c -0.6,1.78 -1.5,3.17 -2.38,4.32 0.05,1.12 0.05,2.47 0.05,4.18 -0.07,4.96 -0.3,10.82 -1.27,16.55 -0.97,5.94 -2.519,11.13 -4.41,15.32 -0.906,2.04 -2.195,3.88 -3.648,5.35 1.035,1.66 0.516,3.88 0.258,4.69 -0.563,1.89 -1.91,3.2 -3.731,3.51 0.036,0.79 0.036,1.57 -0.117,2.26 -0.179,1.25 -1.34,2.62 -2.578,3.04 0,0.53 -0.258,1.06 -0.289,1.51 0,0.16 -0.055,0.19 -0.055,0.26 0,1.55 -0.297,2.99 -0.894,4.06 -0.223,0.33 -0.75,0.42 -1.051,0.72 -0.191,0.31 -0.289,0.65 -0.508,0.9 -0.086,0.09 -0.14,0.14 -0.277,0.22 0.277,0.6 0.785,1.93 1.176,3.32 1.64,5.08 0.898,11.19 -0.09,17.01 -1.153,7.36 -5.231,15.32 -10.824,21.33 -3.219,3.36 -7.164,5.95 -11.793,7.68 -1.797,0.73 -3.715,1.3 -6.286,1.94 -2.539,0.64 -5.078,0.95 -7.543,0.95 -4.675,0 -9.062,-1.04 -13.097,-3.17 -0.422,-0.27 -0.699,-0.57 -1.004,-0.81 -0.938,-0.55 -1.891,-1.26 -2.887,-2.16 -0.637,-0.65 -1.16,-1.3 -1.746,-1.95 -0.543,-0.75 -1.09,-1.48 -1.633,-2.34 -0.547,-0.9 -1,-1.84 -1.496,-2.8 -0.402,-0.82 -0.765,-1.64 -1.148,-2.59 -0.668,-1.95 -1.192,-3.8 -1.563,-5.53 v -0.07 -0.02 c 0,-0.08 0,-0.08 0,-0.11 -0.078,-0.31 -0.176,-0.53 -0.277,-0.91 l -0.172,-0.43 c 0,0 0,-0.07 -0.039,-0.11 -0.09,-0.11 -0.191,-0.27 -0.258,-0.46 0,0 -0.078,-0.04 -0.078,-0.13 0,0 -0.102,-0.06 -0.102,-0.09 -0.3,-0.5 -0.652,-1.07 -1.023,-1.54 -0.887,-1.28 -2.176,-1.87 -3.437,-1.73 -0.438,0.05 -0.887,0.4 -1.329,0.72 -0.449,0.28 -0.828,0.64 -1.347,0.79 -0.981,0.22 -1.641,0.14 -2.875,-0.26 -1.16,-0.35 -2.289,-0.25 -3.637,0.48 -1.191,0.67 -2.301,1.51 -3.48,2.3 -2.411,1.79 -4.95,3.66 -8.172,3.66 -1.414,0 -2.489,-0.43 -3.434,-1.06 -3.949,2.6 -9.035,4 -13.996,4 -1.312,0 -2.633,-0.05 -3.848,-0.25 -5.832,-1 -12.238,-4.44 -19.121,-10.21 -2.578,-2.22 -4.933,-4.81 -7.176,-7.75 -2.171,-2.92 -4.187,-6.21 -5.972,-9.84 -3.668,-7.44 -5.227,-15.91 -6.262,-23.19 -0.312,-2.6 -0.312,-5.37 -0.312,-8 -0.082,-1.39 -0.082,-2.87 -0.18,-4.28 -0.199,-3.79 -0.719,-7.43 -1.348,-11.13 -0.113,-0.66 -0.207,-1.32 -0.269,-2 -0.426,-2.7 -0.293,-4.67 0.468,-6.16 -1.054,-1.48 -1.695,-3.44 -1.363,-5.8 0,-0.59 0.469,-2.31 1.164,-3.64 0.028,-0.29 0.18,-0.54 0.301,-0.78 -0.57,-0.87 -0.863,-1.86 -0.957,-2.86 0,-0.08 0.094,-0.15 0.094,-0.26 0,-0.07 -0.094,-0.11 -0.094,-0.11 0,-0.39 0.211,-0.71 0.238,-1.1 0.012,-0.12 0.012,-0.34 0.012,-0.36 0.137,-0.49 0.137,-1.05 0.309,-1.47 -0.465,-0.91 -0.852,-1.73 -1.067,-2.33 -0.898,-3.04 -0.387,-5.89 1.555,-8.33 1.199,-1.39 2.695,-2.29 4.183,-2.29 l 0.086,0.03 c 0.024,-0.56 0.024,-1.09 0.153,-1.7 0.304,-1.8 1.469,-3.48 2.547,-4.91 l 0.293,-0.42 c 0.746,-1.09 1.558,-2.26 2.261,-3.31 0.942,-1.27 1.774,-2.53 2.739,-3.78 10.203,-14.1 26.078,-23.93 40.339,-31.7 4.778,-2.61 9.258,-4.77 13.672,-6.57 4.938,-2.06 10.371,-3.99 15.989,-5.71 l 2.086,-0.65 c 3.058,-0.88 6.246,-1.82 9.386,-2.69 0.039,-0.1 0.039,-0.11 0.098,-0.21 0,-0.39 0,-0.9 0.219,-1.29 0.761,-0.86 2.101,-1.04 3.058,-1.04 0.449,0 0.848,0 1.278,0.07 0.679,0.12 1.414,0.24 2.16,0.49 0.379,-0.49 0.902,-0.8 1.437,-1.04 0.145,-0.11 0.289,-0.11 0.442,-0.23 0.57,-0.33 1.109,-0.59 1.718,-0.89 0.641,-0.09 1.258,-0.19 1.879,-0.28 0.297,0 0.582,-0.14 0.801,-0.14 0,0 0.09,0 0.149,0 0.152,0 0.293,0 0.39,0 1.192,0 2.36,0.33 3.797,0.98 0.602,-0.56 1.281,-0.84 1.981,-1.06 1.457,-0.55 3.246,-0.55 4.636,0.08 0.86,-0.72 1.824,-1.2 2.934,-1.54 1.281,-0.48 2.703,-0.81 4.336,-0.81 0.265,0 0.543,0 0.84,0 1.66,0.07 3.351,0.66 5,1.72 0.336,-0.21 0.597,-0.07 0.976,-0.09 0.16,-0.12 0.289,-0.12 0.516,-0.12 0.887,-0.21 1.863,-0.46 2.762,-0.36 1.05,0.27 2.121,0.67 3.292,1.34 0.145,-0.08 0.356,-0.08 0.45,-0.14 0.496,-0.21 1.047,-0.39 1.457,-0.55 2.117,-0.65 4.433,-0.38 6.515,0.25 1.297,0.36 2.778,1.02 4.133,1.95 0.145,0.03 0.203,0.13 0.293,0.13 1.047,0.72 1.942,1.61 2.758,2.57 0.227,0.21 0.445,0.32 0.691,0.51 0.137,0 0.278,0 0.418,0 1.282,0 2.618,0.25 3.297,0.57 1.758,0.6 4.153,2.1 5.373,4.27 1.17,0.32 2.25,0.96 3.16,1.77 1.2,1.05 1.85,2.35 2.04,3.75 0.11,0.23 0.3,0.53 0.41,0.84 1.57,1.15 2.59,3.25 2.59,5.44 -0.05,0.47 -0.12,0.95 -0.3,1.46 1,1.77 1.52,4.02 1.94,5.64 l 0.04,0.18 c 1.3,5.69 1.64,12.05 1.04,19.17"
           style="fill:#939598;fill-opacity:1;fill-rule:nonzero;stroke:none"
           id="path38" />
        <path
           d="m 1030.65,1049.26 c -1.97,7.89 -17.39,15.22 -38.166,21.32 l -1.523,-0.9 c -1.426,-0.77 -2.93,-1.39 -4.422,-1.81 -3.359,-1 -6.949,-1.17 -10.059,-0.38 -0.578,-0.2 -1.167,-0.39 -1.777,-0.54 l -2.316,-0.27 c -0.957,0 -1.844,0.12 -2.606,0.26 -1.933,-0.83 -3.918,-1.3 -5.914,-1.38 l -0.152,-0.01 h -0.996 c -2.371,0 -4.649,0.42 -6.961,1.29 -0.543,0.15 -1.094,0.37 -1.649,0.61 -1.957,-0.09 -4.019,0.14 -5.851,0.82 -1.09,-0.25 -2.145,-0.37 -3.223,-0.37 l -3.59,0.38 -2.961,0.82 c -0.75,0.37 -1.281,0.64 -1.785,0.92 -4.566,-0.5 -8.187,0.75 -10.586,3.47 l -0.23,0.25 -8.192,2.4 c -5.878,1.8 -11.484,3.8 -16.621,5.94 -3.226,1.32 -6.55,2.9 -9.953,4.63 -32.894,0.87 -46.59,-5.54 -46.601,-12.31 -12.289,8.53 -35.567,6.76 -74.403,-1.86 -66.304,-16.35 -89.199,-49.7 -90.879,-94.438 -1.683,-44.832 21.391,-117.582 21.391,-117.582 7.148,-25.629 2.02,-38.93 16.477,-33.848 2.523,0.859 4.925,2.019 7.257,3.41 10.907,6.449 19.481,17.367 25.973,23.527 7.93,7.5 19.231,15.442 24.465,21.879 5.168,6.453 16.398,8.91 22.957,15.891 6.586,6.992 12.719,11.359 31.016,16.16 22.48,5.91 46.656,10.891 49.765,17.383 8.949,1.129 31.012,6.789 48.985,20.949 22.777,18.027 36.777,30.277 68.941,53.848 20.649,15.091 29.899,26.931 33.229,36.171 1.87,5.3 1.87,9.72 0.96,13.37"
           style="fill:#939598;fill-opacity:1;fill-rule:nonzero;stroke:none"
           id="path40" />
      </g>
      <path
         style="fill:#363757;fill-opacity:1;stroke:#000baa;stroke-width:5.66984;stroke-linecap:round;stroke-linejoin:round;stroke-opacity:0;stop-color:#000000"
         d="m 226.62442,316.28558 c -1.03729,-6.4869 -0.0172,-7.36075 3.48164,-2.98237 1.54449,1.93275 3.12172,3.20053 3.50497,2.81729 1.32322,-1.32321 -3.45754,-9.90889 -8.48194,-15.23257 -4.33036,-4.58831 -5.21517,-6.42751 -6.28054,-13.05507 -0.68203,-4.2429 -1.2441,-11.01366 -1.24904,-15.04613 -0.0126,-10.32548 -2.11176,-24.55837 -4.95751,-33.61367 -2.43632,-7.75247 -3.71046,-26.04726 -3.33176,-47.83904 0.31914,-18.36394 -5.2853,-26.91282 -21.98372,-33.53349 -15.74684,-6.24339 -20.76942,-9.44092 -20.76942,-13.22245 0,-3.36192 3.60872,-15.99637 4.84607,-16.96652 3.05545,-2.39564 6.00095,-13.05507 3.60748,-13.05507 -0.57257,0 -0.78485,-2.27289 -0.47173,-5.05086 0.34388,-3.05093 -0.3525,-6.60934 -1.19581,-9.19789 -3.832,-13.787426 -20.70571,-14.166497 -29.53996,-8.151232 -4.22868,3.00485 -7.41386,11.528652 -6.59375,17.643042 0.35092,2.61632 0.15479,4.75694 -0.43585,4.75694 -0.59064,0 -1.07389,1.05002 -1.07389,2.33338 0,2.63938 3.59459,10.72169 4.76846,10.72169 1.24655,0 5.18016,17.28099 4.39773,19.31995 -0.73846,1.92441 -13.7157,8.53378 -25.17133,12.81988 -11.66869,4.36581 -17.53963,15.11266 -17.25341,31.58263 0.38064,21.90309 -0.89279,40.07851 -3.351752,47.83904 -1.344386,4.24289 -3.077453,12.68801 -3.851261,18.76692 l -1.406923,11.05255 -2.272424,-3.33819 c -4.596036,-6.75159 -11.441195,-21.40453 -14.43967,-30.90997 -4.227108,-13.4003 -5.705649,-23.5115 -5.707687,-39.03278 -0.0047,-35.85091 13.373088,-67.30114 39.161967,-92.06695 11.45722,-11.002715 19.57711,-16.743781 33.1701,-23.452502 42.45938,-20.955515 93.91021,-16.341078 132.00149,11.838733 9.87114,7.302636 24.2722,22.193889 30.73004,31.776049 29.71394,44.08958 29.22742,101.70701 -1.23084,145.76645 -8.1099,11.73138 -26.75805,29.26812 -38.84221,36.52724 -9.63651,5.78878 -28.13102,13.45871 -35.2314,14.61095 -3.61362,0.58641 -3.76875,0.43537 -4.54612,-4.42598 z m 48.26853,-33.60965 c 8.84244,-3.69633 24.65349,-25.03116 31.78812,-42.89363 8.78374,-21.99125 10.62715,-50.21788 4.76781,-73.00554 -3.69134,-14.35609 -12.62524,-31.94801 -22.25508,-43.82297 -10.66935,-13.15683 -11.27755,-13.49001 -16.0016,-8.76597 l -3.76011,3.76012 7.60702,8.22581 c 35.8053,38.71786 35.70988,102.38666 -0.21058,140.51492 -6.4388,6.83454 -9.17992,7.75038 -13.35875,4.4633 -4.87631,-3.83571 -4.20539,-8.08758 2.48387,-15.74146 7.77751,-8.89902 14.02073,-19.83155 17.74466,-31.07275 4.11968,-12.43577 5.17413,-35.79396 2.19668,-48.65981 -3.99827,-17.2768 -19.0625,-41.70647 -28.47068,-46.17095 -11.73016,-5.56633 -25.5326,1.44632 -27.4036,13.92305 -0.95741,6.3845 0.95856,11.21085 7.61922,19.19284 13.57644,16.26969 16.33958,37.48063 7.28075,55.89002 -1.9568,3.97662 -5.784,9.75928 -8.50489,12.85039 l -4.94706,5.62016 3.82024,3.76515 3.82025,3.76517 5.56781,-5.99996 c 13.94228,-15.02443 19.6768,-36.3548 15.04962,-55.97912 -2.31334,-9.81101 -5.87377,-17.13708 -12.73241,-26.1986 -6.42935,-8.49434 -7.30917,-13.19796 -3.02946,-16.19558 4.22392,-2.95855 7.22104,-2.18742 12.42355,3.19647 6.69312,6.92647 12.47714,16.4229 16.44511,27.00025 3.03291,8.08474 3.34679,10.37079 3.42206,24.92332 0.0694,13.41317 -0.34575,17.37492 -2.54941,24.3299 -3.23843,10.22086 -9.31734,20.61919 -17.61844,30.13739 -4.88389,5.59995 -6.48491,8.43138 -7.10479,12.56499 -2.12028,14.13912 12.78897,25.86803 25.91009,20.38309 z"
         id="path5714"
         sodipodi:nodetypes="sssssssssssssccssssssssscsssssssssssssssscssssssssssscccsssssssssss" />
      <path
         style="fill:#363757;fill-opacity:1;stroke:#000baa;stroke-width:2.00459;stroke-linecap:round;stroke-linejoin:round;stroke-opacity:0;stop-color:#000000"
         d="m 195.94482,324.41068 -1.15422,-0.17482 0.31501,-3.64367 c 0.49027,-5.67086 0.34316,-18.79282 -0.25424,-22.67826 -0.29676,-1.93006 -1.27295,-6.48469 -2.16932,-10.1214 -1.23272,-5.00135 -1.94409,-9.41098 -2.92001,-18.1005 -1.4452,-12.86808 -1.7381,-14.83212 -3.05865,-20.50983 -1.69204,-7.27495 -0.8996,-16.84921 2.13305,-25.77135 0.62112,-1.82734 1.33387,-3.39038 1.5839,-3.47341 1.23024,-0.40857 3.35933,12.44336 5.01855,30.29377 1.16235,12.50493 2.19549,16.35493 10.07773,37.55473 l 2.4182,6.50389 0.30499,6.92349 c 0.31907,7.24324 1.26936,12.89328 3.20008,19.02644 0.56985,1.81017 0.92,3.40731 0.7781,3.5492 -0.55081,0.55083 -13.4801,1.04479 -16.27317,0.62172 z"
         id="path5901" />
      <path
         style="fill:#363757;fill-opacity:1;stroke:#000baa;stroke-width:2.00459;stroke-linecap:round;stroke-linejoin:round;stroke-opacity:0;stop-color:#000000"
         d="m 111.59194,289.43506 -4.46934,-4.20927 0.86277,-2.18167 c 4.09604,-10.35764 7.15436,-21.52519 7.89714,-28.83672 1.90715,-18.77278 3.51851,-30.40729 4.6077,-33.26894 0.59164,-1.55441 1.04823,-1.18947 2.14141,1.71165 1.61532,4.28679 2.9377,11.0017 3.2005,16.25175 0.22867,4.56837 0.13341,5.59943 -1.02728,11.11955 -0.70363,3.34636 -1.48171,7.78613 -1.72906,9.86617 -0.24736,2.08004 -1.00962,5.57326 -1.69392,7.76272 -1.71339,5.48204 -2.29347,8.16805 -3.803,17.60949 -0.71877,4.49561 -1.35427,8.22123 -1.41222,8.27918 -0.058,0.058 -2.11657,-1.7888 -4.5747,-4.10391 z"
         id="path5940" />
      <path
         style="fill:#58595b;fill-opacity:1;stroke:#000baa;stroke-width:4.00918;stroke-linecap:round;stroke-linejoin:round;stroke-opacity:0;stop-color:#000000"
         d="m 94.907529,84.655843 -7.535408,-7.593778 2.937241,-2.516566 C 117.38826,51.344867 145.80978,38.213627 178.31216,33.886675 c 4.90939,-0.653573 10.71996,-1.195687 12.9124,-1.204698 l 3.98626,-0.01638 V 43.87454 55.083489 l -7.64871,0.577401 c -27.40233,2.068602 -57.36109,14.430819 -78.33416,32.323902 -2.74943,2.345656 -5.40082,4.264829 -5.89198,4.264829 -0.49117,0 -4.283966,-3.4172 -8.428441,-7.593778 z"
         id="path10516" />
      <path
         style="fill:#58595b;fill-opacity:1;stroke:#000baa;stroke-width:4.00918;stroke-linecap:round;stroke-linejoin:round;stroke-opacity:0;stop-color:#000000"
         d="m 204.44214,347.78957 v -11.32936 l 3.56666,-0.0154 c 5.91133,-0.0255 20.69903,-2.38679 28.73775,-4.58886 19.69194,-5.39428 38.77272,-15.37 53.67847,-28.06391 2.74942,-2.34145 5.40081,-4.25717 5.89198,-4.25717 0.49116,0 4.28396,3.4172 8.42845,7.59378 l 7.53539,7.59378 -2.93723,2.50734 c -22.34858,19.0776 -43.39216,30.40695 -68.50705,36.88256 -9.79928,2.52664 -25.97741,5.00657 -32.66094,5.00657 h -3.73347 z"
         id="path10555" />
      <path
         style="fill:#808285;fill-opacity:1;stroke:#000baa;stroke-width:4.00918;stroke-linecap:round;stroke-linejoin:round;stroke-opacity:0;stop-color:#000000"
         d="M 290.42502,87.988355 C 269.23052,69.921479 239.65829,57.69933 212.20485,55.660099 l -7.76271,-0.57661 V 43.87454 32.665593 h 3.73348 c 6.68352,0 22.86166,2.479934 32.66093,5.006572 25.11489,6.475603 46.15847,17.80496 68.50705,36.88256 l 2.93724,2.50734 -7.5354,7.593778 c -4.14448,4.176578 -7.93728,7.593778 -8.42844,7.593778 -0.49117,0 -3.14256,-1.917569 -5.89198,-4.261266 z"
         id="path13829" />
      <path
         style="fill:#808285;fill-opacity:1;stroke:#000baa;stroke-width:4.00918;stroke-linecap:round;stroke-linejoin:round;stroke-opacity:0;stop-color:#000000"
         d="m 177.58737,357.85222 c -31.57149,-4.33133 -61.61796,-18.24958 -86.858402,-40.2349 l -3.356847,-2.92394 7.535408,-7.57924 c 4.144475,-4.16858 7.937271,-7.57924 8.428441,-7.57924 0.49116,0 3.14255,1.91917 5.89198,4.26483 14.78397,12.61287 36.50771,23.73128 56.19086,28.75897 6.32344,1.6152 21.75478,3.90151 26.33306,3.90151 h 3.45895 v 11.32936 11.32936 l -4.82547,-0.0865 c -2.65401,-0.0476 -8.4131,-0.57866 -12.79798,-1.18023 z"
         id="path13868" />
      <path
         style="fill:#a7a9ac;fill-opacity:1;stroke:#000baa;stroke-width:4.00918;stroke-linecap:round;stroke-linejoin:round;stroke-opacity:0;stop-color:#000000"
         d="M 74.451348,300.58391 C 58.732596,281.62359 47.545788,259.93762 41.61187,236.9236 39.080532,227.10609 36.599815,210.93003 36.599815,204.24139 v -3.73347 h 11.208947 11.208949 l 0.57661,7.76271 c 2.019124,27.18275 14.454271,57.27365 32.324693,78.22017 2.345656,2.74942 4.264829,5.38546 4.264829,5.85788 0,0.89517 -14.277563,15.57834 -15.148012,15.57834 -0.273241,0 -3.236259,-3.3044 -6.584483,-7.34311 z"
         id="path19053" />
      <path
         style="fill:#a7a9ac;fill-opacity:1;stroke:#000baa;stroke-width:4.00918;stroke-linecap:round;stroke-linejoin:round;stroke-opacity:0;stop-color:#000000"
         d="m 340.37906,187.70995 c -0.0213,-4.95136 -2.19264,-19.75208 -3.81945,-26.0354 -5.2015,-20.09011 -16.17389,-41.55127 -28.82566,-56.38083 -2.34566,-2.74942 -4.26483,-5.25324 -4.26483,-5.564056 0,-0.85004 14.33091,-15.872159 15.14184,-15.872159 1.20047,0 14.96224,17.667035 19.67426,25.257355 9.08399,14.63285 15.66142,29.8662 19.76136,45.76733 2.52664,9.79928 5.00657,25.9774 5.00657,32.66094 v 3.73347 h -11.32936 -11.32936 z"
         id="path19092" />
      <path
         style="fill:#c6c8ca;fill-opacity:1;stroke:#000baa;stroke-width:4.00918;stroke-linecap:round;stroke-linejoin:round;stroke-opacity:0;stop-color:#000000"
         d="m 36.599815,187.54313 c 0,-6.68354 2.479934,-22.86166 5.006572,-32.66094 6.475603,-25.11489 17.80496,-46.15847 36.88256,-68.50705 l 2.50734,-2.937241 7.593778,7.535408 c 4.176578,4.144475 7.593778,7.937272 7.593778,8.428438 0,0.491167 -1.915724,3.142555 -4.257166,5.891975 -17.961294,21.09093 -30.461032,51.3481 -32.379756,78.37922 l -0.539722,7.60366 H 47.803506 36.599815 Z"
         id="path24433" />
      <path
         style="fill:#58595b;fill-opacity:1;stroke:#000baa;stroke-width:4.00918;stroke-linecap:round;stroke-linejoin:round;stroke-opacity:0;stop-color:#000000"
         d="m 310.79473,300.56732 c -4.02909,-4.04784 -7.3256,-7.74623 -7.3256,-8.21864 0,-0.47242 1.91917,-3.10846 4.26483,-5.85788 12.61287,-14.78397 23.73128,-36.50772 28.75897,-56.19086 1.6152,-6.32344 3.9015,-21.75478 3.9015,-26.33307 v -3.45895 h 11.32936 11.32936 l -0.0164,3.98626 c -0.024,5.84955 -2.13698,20.76052 -4.13241,29.16235 -3.82828,16.11914 -11.43624,34.27386 -20.39762,48.67453 -4.68187,7.5236 -18.65468,25.59596 -19.78976,25.59596 -0.32816,0 -3.89317,-3.31187 -7.92225,-7.3597 z"
         id="path24472" />
      <path
         style="fill:#c6c8ca;fill-opacity:1;stroke:#000baa;stroke-width:4.00918;stroke-linecap:round;stroke-linejoin:round;stroke-opacity:0;stop-color:#000000"
         d="m 313.42069,303.95807 c -2.33372,-2.18292 -5.74078,-5.75773 -7.57125,-7.94402 l -3.32813,-3.97509 4.39853,-5.27355 c 10.67808,-12.80237 20.73747,-31.01366 26.37057,-47.7407 2.51531,-7.469 5.05339,-20.49018 6.73066,-34.53053 l 0.47621,-3.98626 h 11.40366 11.40366 l -0.49419,9.02153 c -1.31079,23.92926 -10.94173,52.89318 -24.54615,73.81969 -6.63002,10.19839 -17.99102,24.57788 -19.41858,24.57788 -0.65003,0 -3.09127,-1.78603 -5.42499,-3.96895 z"
         id="path28202" />
    </g>
  </g>
  <g
     inkscape:groupmode="layer"
     id="layer2"
     inkscape:label="Image 2">
    <text
       xml:space="preserve"
       style="font-style:normal;font-variant:normal;font-weight:normal;font-stretch:condensed;font-size:43.2522px;line-height:1.25;font-family:'Agency FB';-inkscape-font-specification:'Agency FB, Condensed';font-variant-ligatures:normal;font-variant-caps:normal;font-variant-numeric:normal;font-variant-east-asian:normal;word-spacing:0px;fill:#363757;fill-opacity:1;stroke-width:1.08131"
       x="172.10626"
       y="82.263962"
       id="text2514"><tspan
         sodipodi:role="line"
         id="tspan2512"
         x="172.10626"
         y="82.263962"
         style="font-style:normal;font-variant:normal;font-weight:normal;font-stretch:condensed;font-size:43.2522px;font-family:'Agency FB';-inkscape-font-specification:'Agency FB, Condensed';font-variant-ligatures:normal;font-variant-caps:normal;font-variant-numeric:normal;font-variant-east-asian:normal;fill:#363757;fill-opacity:1;stroke-width:1.08131">Dr. Gerardo Amzcua Snchez</tspan></text>
    <text
       xml:space="preserve"
       style="font-style:normal;font-variant:normal;font-weight:normal;font-stretch:condensed;font-size:20.9875px;line-height:1.25;font-family:'Agency FB';-inkscape-font-specification:'Agency FB, Condensed';font-variant-ligatures:normal;font-variant-caps:normal;font-variant-numeric:normal;font-variant-east-asian:normal;word-spacing:0px;fill:#828487;fill-opacity:1;stroke-width:0.524688;letter-spacing:3px"
       x="174.57973"
       y="109.65989"
       id="text2514-5"><tspan
         sodipodi:role="line"
         id="tspan2512-7"
         x="174.57973"
         y="109.65989"
         style="font-style:normal;font-variant:normal;font-weight:normal;font-stretch:condensed;font-size:20.9875px;font-family:'Agency FB';-inkscape-font-specification:'Agency FB, Condensed';font-variant-ligatures:normal;font-variant-caps:normal;font-variant-numeric:normal;font-variant-east-asian:normal;fill:#828487;fill-opacity:1;stroke-width:0.524688">Ced. Prof. 6535101  - Ced. Esp. 12743251</tspan></text>
    <g
       id="g20039"
       transform="matrix(1.0813052,0,0,1.0813052,6.8183077,90.606185)">
      <g
         id="g20034">
        <text
           xml:space="preserve"
           style="font-style:normal;font-variant:normal;font-weight:normal;font-stretch:normal;font-size:23.8303px;line-height:1.25;font-family:'AF TOMMY HILFIGER';-inkscape-font-specification:'AF TOMMY HILFIGER, Normal';font-variant-ligatures:normal;font-variant-caps:normal;font-variant-numeric:normal;font-variant-east-asian:normal;letter-spacing:1.41496px;word-spacing:0px;fill:#828487;fill-opacity:1;stroke-width:0.768738"
           x="153.57372"
           y="50.945137"
           id="text2514-5-3"><tspan
             sodipodi:role="line"
             id="tspan2512-7-5"
             x="153.57372"
             y="50.945137"
             style="font-style:normal;font-variant:normal;font-weight:normal;font-stretch:condensed;font-size:23.8303px;font-family:'Agency FB';-inkscape-font-specification:'Agency FB, Condensed';font-variant-ligatures:normal;font-variant-caps:normal;font-variant-numeric:normal;font-variant-east-asian:normal;fill:#828487;fill-opacity:1;stroke-width:0.768738"
             dx="0">IMAGENOLOGA DIAGNSTICA Y TERAPUTICA</tspan></text>
      </g>
    </g>
  </g>
</svg>
